<?xml version="1.0" encoding="utf-8"?>
<!-- Generator: Adobe Illustrator 21.0.0, SVG Export Plug-In . SVG Version: 6.00 Build 0)  -->
<svg version="1.1" id="Layer_1" xmlns="http://www.w3.org/2000/svg" xmlns:xlink="http://www.w3.org/1999/xlink" x="0px" y="0px"
	 viewBox="0 0 1920 1080" enable-background="new 0 0 1920 1080" xml:space="preserve">
<path fill="#E6E6E6" d="M528.7,482H492v-46h36.7c6.2,0,11.3,5.1,11.3,11.3v23.4C540,476.9,534.9,482,528.7,482z"/>
<g>
	<path fill="#FFFFFF" d="M182,386.5c-9.1,0-16.5-7.4-16.5-16.5v-23c0-9.1,7.4-16.5,16.5-16.5h54c9.1,0,16.5,7.4,16.5,16.5v23
		c0,9.1-7.4,16.5-16.5,16.5H182z"/>
	<path d="M236,331c8.8,0,16,7.2,16,16v23c0,8.8-7.2,16-16,16h-54c-8.8,0-16-7.2-16-16v-23c0-8.8,7.2-16,16-16H236 M236,330h-54
		c-9.4,0-17,7.6-17,17v23c0,9.4,7.6,17,17,17h54c9.4,0,17-7.6,17-17v-23C253,337.6,245.4,330,236,330L236,330z"/>
</g>
<g>
	<path d="M195.2,370.6h13.3v1.9h-15.6v-27h2.3V370.6z"/>
	<path d="M215.2,361.5v11h-2.3v-27h9.2c2.8,0,5,0.7,6.7,2.2c1.6,1.4,2.4,3.4,2.4,5.9c0,2.5-0.8,4.5-2.3,5.9
		c-1.6,1.4-3.8,2.1-6.8,2.1H215.2z M215.2,359.6h6.9c2.2,0,3.9-0.5,5.1-1.6c1.2-1.1,1.7-2.5,1.7-4.4c0-1.9-0.6-3.4-1.7-4.5
		c-1.2-1.1-2.8-1.7-4.9-1.7h-7.1V359.6z"/>
</g>
<g>
	<g>
		<line fill="none" stroke="#000000" stroke-miterlimit="10" x1="252.5" y1="358.5" x2="334.3" y2="358.5"/>
		<g>
			<polygon points="332.9,363.5 341.5,358.5 332.9,353.5 			"/>
		</g>
	</g>
</g>
<path fill-rule="evenodd" clip-rule="evenodd" fill="none" stroke="#000000" stroke-miterlimit="10" d="M424.5,385.5h-71
	c-6.6,0-12-5.4-12-12v-31c0-6.6,5.4-12,12-12h71c6.6,0,12,5.4,12,12v31C436.5,380.1,431.1,385.5,424.5,385.5z"/>
<g>
	<path d="M365.1,365.1c0-1.2-0.4-2.1-1.1-2.8s-2.1-1.4-4-2.1c-2.4-0.7-4-1.6-5-2.6c-0.9-1-1.4-2.3-1.4-3.9c0-1.7,0.5-3.1,1.6-4.1
		c1-1.1,2.5-1.7,4.3-1.8v-3.2h1.6v3.2c1.8,0.2,3.3,0.8,4.3,2.1c1,1.2,1.5,2.8,1.5,4.9h-1.9c0-1.6-0.4-2.9-1.3-3.9
		c-0.8-1-2-1.4-3.5-1.4c-1.5,0-2.6,0.4-3.5,1.2s-1.2,1.8-1.2,3.1c0,1.3,0.4,2.2,1.1,2.9c0.8,0.7,2.1,1.4,3.9,2s3.2,1.2,4,1.8
		c0.8,0.6,1.4,1.2,1.9,2c0.4,0.8,0.6,1.7,0.6,2.8c0,1.7-0.5,3.1-1.6,4.1c-1.1,1-2.5,1.6-4.4,1.8v3h-1.6v-3c-2.1-0.1-3.7-0.8-4.9-2
		c-1.1-1.2-1.7-2.8-1.7-4.9h1.9c0,1.6,0.5,2.9,1.4,3.8c0.9,0.9,2.3,1.4,4,1.4c1.5,0,2.7-0.4,3.6-1.2
		C364.6,367.4,365.1,366.3,365.1,365.1z"/>
	<path d="M374.2,347.9l8.4,20.1l8.4-20.1h2.6v22.8h-1.9v-9.9l0.2-10.2l-8.5,20.1h-1.5l-8.4-20l0.2,10v10h-1.9v-22.8H374.2z"/>
	<path d="M401.6,370.7h-1.9v-22.8h1.9V370.7z"/>
	<path d="M416.3,361.2h-6.6v9.5h-1.9v-22.8h7.4c2.4,0,4.3,0.6,5.7,1.8c1.4,1.2,2,2.8,2,4.9c0,1.5-0.4,2.7-1.3,3.9
		c-0.9,1.1-2,1.9-3.4,2.3l5.7,9.7v0.2h-2L416.3,361.2z M409.7,359.6h5.9c1.6,0,2.9-0.5,3.9-1.4c1-0.9,1.5-2.1,1.5-3.6
		c0-1.6-0.5-2.9-1.5-3.7c-1-0.9-2.5-1.3-4.3-1.3h-5.4V359.6z"/>
</g>
<g>
	<g>
		<path fill="none" stroke="#000000" stroke-miterlimit="10" d="M492,428.8c0-18.3,0-65.9,0-71.3c-1.2,0-2.1,0-2.1,0h-53.4"/>
		<g>
			<polygon points="497,427.4 492,436 487,427.4 			"/>
		</g>
	</g>
</g>
<path fill="none" stroke="#000000" stroke-miterlimit="10" d="M528.5,481.5h-76c-6.6,0-12-5.4-12-12v-22c0-6.6,5.4-12,12-12h76
	c6.6,0,12,5.4,12,12v22C540.5,476.1,535.1,481.5,528.5,481.5z"/>
<g>
	<path d="M465.1,465.4c0-1.2-0.4-2.1-1.1-2.8s-2.1-1.4-4-2.1c-2.4-0.7-4-1.6-5-2.6c-0.9-1-1.4-2.3-1.4-3.9c0-1.7,0.5-3.1,1.6-4.1
		c1-1.1,2.5-1.7,4.3-1.8v-3.2h1.6v3.2c1.8,0.2,3.3,0.8,4.3,2.1c1,1.2,1.5,2.8,1.5,4.9h-1.9c0-1.6-0.4-2.9-1.3-3.9
		c-0.8-1-2-1.4-3.5-1.4c-1.5,0-2.6,0.4-3.5,1.2s-1.2,1.8-1.2,3.1c0,1.3,0.4,2.2,1.1,2.9c0.8,0.7,2.1,1.4,3.9,2s3.2,1.2,4,1.8
		c0.8,0.6,1.4,1.2,1.9,2c0.4,0.8,0.6,1.7,0.6,2.8c0,1.7-0.5,3.1-1.6,4.1c-1.1,1-2.5,1.6-4.4,1.8v3h-1.6v-3c-2.1-0.1-3.7-0.8-4.9-2
		c-1.1-1.2-1.7-2.8-1.7-4.9h1.9c0,1.6,0.5,2.9,1.4,3.8c0.9,0.9,2.3,1.4,4,1.4c1.5,0,2.7-0.4,3.6-1.2
		C464.6,467.7,465.1,466.7,465.1,465.4z"/>
	<path d="M487.3,448.3v15.5c0,1.5-0.3,2.9-1,4c-0.7,1.1-1.6,2-2.8,2.6c-1.2,0.6-2.6,0.9-4.2,0.9c-2.4,0-4.3-0.7-5.8-2
		c-1.4-1.3-2.2-3.1-2.2-5.4v-15.7h1.9v15.4c0,1.9,0.5,3.4,1.6,4.5c1.1,1.1,2.6,1.6,4.5,1.6s3.4-0.5,4.4-1.6c1.1-1.1,1.6-2.5,1.6-4.4
		v-15.4H487.3z"/>
	<path d="M505.5,465.4c0-1.3-0.4-2.3-1.3-3c-0.9-0.7-2.5-1.4-4.9-2.1c-2.4-0.7-4.1-1.4-5.2-2.2c-1.5-1.1-2.3-2.6-2.3-4.3
		c0-1.7,0.7-3.2,2.1-4.2c1.4-1.1,3.3-1.6,5.5-1.6c1.5,0,2.9,0.3,4.1,0.9c1.2,0.6,2.1,1.4,2.8,2.4c0.7,1,1,2.2,1,3.5h-1.9
		c0-1.6-0.5-2.8-1.6-3.8s-2.5-1.4-4.3-1.4c-1.7,0-3.1,0.4-4.2,1.2s-1.5,1.8-1.5,3c0,1.2,0.5,2.1,1.4,2.8c0.9,0.7,2.4,1.4,4.5,1.9
		c2,0.6,3.6,1.1,4.6,1.7c1.1,0.6,1.8,1.3,2.4,2.1c0.5,0.8,0.8,1.8,0.8,3c0,1.8-0.7,3.2-2.1,4.3c-1.4,1.1-3.3,1.6-5.7,1.6
		c-1.6,0-3.1-0.3-4.4-0.9c-1.3-0.6-2.4-1.4-3-2.4c-0.7-1-1-2.2-1-3.5h1.9c0,1.6,0.6,2.9,1.8,3.8c1.2,0.9,2.8,1.4,4.8,1.4
		c1.8,0,3.2-0.4,4.3-1.2C505,467.7,505.5,466.7,505.5,465.4z"/>
	<path d="M527,449.9h-7.8V471h-1.9v-21.1h-7.8v-1.6H527V449.9z"/>
</g>
<g>
	<g>
		<line fill="none" stroke="#000000" stroke-miterlimit="10" x1="492.5" y1="436" x2="492.5" y2="436.5"/>
		<line fill="none" stroke="#000000" stroke-miterlimit="10" stroke-dasharray="1,1" x1="492.5" y1="437.5" x2="492.5" y2="481"/>
		<line fill="none" stroke="#000000" stroke-miterlimit="10" x1="492.5" y1="481.5" x2="492.5" y2="482"/>
	</g>
</g>
<g>
	<g>
		<path fill="none" stroke="#000000" stroke-miterlimit="10" d="M394.2,550h119.7c0,0,0.2,0,0.6,0c0-8.8,0-68.5,0-68.5"/>
		<g>
			<polygon points="395.6,555 387,550 395.6,545 			"/>
		</g>
	</g>
</g>
<path fill="none" stroke="#000000" stroke-miterlimit="10" d="M374.5,572.5h-101c-6.6,0-12-5.4-12-12v-21c0-6.6,5.4-12,12-12h101
	c6.6,0,12,5.4,12,12v21C386.5,567.1,381.1,572.5,374.5,572.5z"/>
<g>
	<path d="M274.8,542.4l0.1,2.8c0.6-1,1.4-1.8,2.3-2.3s2-0.8,3.1-0.8c2.7,0,4.4,1.1,5.1,3.3c0.6-1.1,1.4-1.9,2.4-2.4
		c1-0.6,2.1-0.9,3.3-0.9c3.6,0,5.5,2,5.5,5.9v11.3h-1.9v-11.1c0-1.5-0.3-2.6-1-3.4s-1.7-1.1-3.1-1.1c-1.3,0-2.5,0.5-3.4,1.3
		c-0.9,0.8-1.4,1.9-1.5,3.1v11.2h-1.9v-11.3c0-1.4-0.4-2.5-1-3.2s-1.7-1.1-3.1-1.1c-1.2,0-2.2,0.3-3,1s-1.5,1.7-1.9,3v11.6H273
		v-16.9H274.8z"/>
	<path d="M314.2,552.9h-10.3l-2.3,6.4h-2l8.6-22.8h1.8l8.6,22.8h-2L314.2,552.9z M304.4,551.3h9.1l-4.6-12.4L304.4,551.3z"/>
	<path d="M331.6,555c0-0.9-0.4-1.7-1.1-2.2c-0.7-0.6-1.9-1-3.4-1.3c-1.5-0.3-2.7-0.7-3.5-1.1c-0.8-0.4-1.4-0.9-1.8-1.5
		c-0.4-0.6-0.6-1.3-0.6-2.2c0-1.3,0.6-2.4,1.7-3.3c1.1-0.9,2.5-1.3,4.3-1.3c1.9,0,3.4,0.5,4.5,1.4s1.7,2.1,1.7,3.6h-1.9
		c0-1-0.4-1.8-1.2-2.5s-1.9-1-3.1-1c-1.2,0-2.2,0.3-3,0.8c-0.7,0.5-1.1,1.3-1.1,2.1c0,0.8,0.3,1.5,0.9,2c0.6,0.5,1.8,0.9,3.4,1.3
		c1.6,0.4,2.9,0.8,3.7,1.2c0.8,0.4,1.4,1,1.8,1.6c0.4,0.6,0.6,1.4,0.6,2.2c0,1.4-0.6,2.6-1.7,3.4c-1.2,0.9-2.7,1.3-4.5,1.3
		c-2,0-3.6-0.5-4.8-1.4c-1.2-1-1.8-2.2-1.8-3.6h1.9c0.1,1.1,0.5,1.9,1.4,2.6c0.8,0.6,2,0.9,3.4,0.9c1.3,0,2.4-0.3,3.2-0.9
		C331.2,556.6,331.6,555.9,331.6,555z"/>
	<path d="M347.8,555c0-0.9-0.4-1.7-1.1-2.2c-0.7-0.6-1.9-1-3.4-1.3c-1.5-0.3-2.7-0.7-3.5-1.1c-0.8-0.4-1.4-0.9-1.8-1.5
		c-0.4-0.6-0.6-1.3-0.6-2.2c0-1.3,0.6-2.4,1.7-3.3c1.1-0.9,2.5-1.3,4.3-1.3c1.9,0,3.4,0.5,4.5,1.4s1.7,2.1,1.7,3.6h-1.9
		c0-1-0.4-1.8-1.2-2.5s-1.9-1-3.1-1c-1.2,0-2.2,0.3-3,0.8c-0.7,0.5-1.1,1.3-1.1,2.1c0,0.8,0.3,1.5,0.9,2c0.6,0.5,1.8,0.9,3.4,1.3
		c1.6,0.4,2.9,0.8,3.7,1.2c0.8,0.4,1.4,1,1.8,1.6c0.4,0.6,0.6,1.4,0.6,2.2c0,1.4-0.6,2.6-1.7,3.4c-1.2,0.9-2.7,1.3-4.5,1.3
		c-2,0-3.6-0.5-4.8-1.4c-1.2-1-1.8-2.2-1.8-3.6h1.9c0.1,1.1,0.5,1.9,1.4,2.6c0.8,0.6,2,0.9,3.4,0.9c1.3,0,2.4-0.3,3.2-0.9
		C347.4,556.6,347.8,555.9,347.8,555z"/>
	<path d="M360.4,559.6c-1.4,0-2.7-0.4-3.9-1.1c-1.2-0.7-2.1-1.7-2.7-3c-0.6-1.3-1-2.7-1-4.3v-0.7c0-1.6,0.3-3.1,0.9-4.4
		c0.6-1.3,1.5-2.3,2.6-3.1s2.3-1.1,3.7-1.1c2.1,0,3.7,0.7,4.9,2.1s1.8,3.3,1.8,5.7v1h-12.1v0.4c0,1.9,0.5,3.5,1.6,4.8
		c1.1,1.3,2.5,1.9,4.1,1.9c1,0,1.9-0.2,2.6-0.5c0.8-0.4,1.5-0.9,2.1-1.8l1.2,0.9C365,558.7,363,559.6,360.4,559.6z M360.1,543.7
		c-1.4,0-2.6,0.5-3.6,1.5c-1,1-1.5,2.4-1.8,4.2h10.1v-0.2c-0.1-1.6-0.5-2.9-1.4-4S361.5,543.7,360.1,543.7z"/>
	<path d="M373.3,538.1v4.3h3.5v1.5h-3.5v11.3c0,0.9,0.2,1.6,0.5,2.1c0.3,0.5,0.9,0.7,1.7,0.7c0.3,0,0.8-0.1,1.5-0.2l0.1,1.5
		c-0.5,0.2-1.2,0.3-2,0.3c-1.3,0-2.2-0.4-2.8-1.1c-0.6-0.7-0.9-1.8-0.9-3.3V544h-3.1v-1.5h3.1v-4.3H373.3z"/>
</g>
<g>
	<g>
		<path fill="none" stroke="#000000" stroke-miterlimit="10" d="M261,549h-53.3c0,0-0.1,0-0.2,0c0-0.6,0-1.2,0-1.2V393.2"/>
		<g>
			<polygon points="212.5,394.6 207.5,386 202.5,394.6 			"/>
		</g>
	</g>
</g>
<g>
	<g>
		<line fill="none" stroke="#000000" stroke-miterlimit="10" x1="440.5" y1="458.5" x2="337.2" y2="458.5"/>
		<g>
			<polygon points="338.6,453.5 330,458.5 338.6,463.5 			"/>
		</g>
	</g>
</g>
<line fill="none" stroke="#000000" stroke-miterlimit="10" x1="337.5" y1="458.5" x2="207.5" y2="458.5"/>
<g>
	<path d="M410.2,537.4h-2.9v7.9h-0.7v-7.9h-2.9v-0.6h6.6V537.4z"/>
	<path d="M413,541.6l1.7-2.6h0.8l-2.2,3.1l2.2,3.2h-0.8l-1.8-2.7l-1.8,2.7h-0.8l2.2-3.2l-2.2-3.1h0.8L413,541.6z"/>
	<path d="M424.6,541.3h-4v4h-0.7v-8.5h5.3v0.6h-4.6v3.3h4V541.3z"/>
	<path d="M428.8,545.5c-0.5,0-1-0.1-1.5-0.4s-0.8-0.6-1-1.1s-0.4-1-0.4-1.6v-0.3c0-0.6,0.1-1.2,0.4-1.6s0.6-0.9,1-1.2
		s0.9-0.4,1.4-0.4c0.8,0,1.4,0.3,1.8,0.8s0.7,1.2,0.7,2.2v0.4h-4.5v0.1c0,0.7,0.2,1.3,0.6,1.8s0.9,0.7,1.6,0.7c0.4,0,0.7-0.1,1-0.2
		s0.5-0.4,0.8-0.7l0.4,0.3C430.5,545.1,429.8,545.5,428.8,545.5z M428.7,539.5c-0.5,0-1,0.2-1.3,0.6s-0.6,0.9-0.7,1.6h3.8v-0.1
		c0-0.6-0.2-1.1-0.5-1.5S429.2,539.5,428.7,539.5z"/>
	<path d="M435,545.5c-0.5,0-1-0.1-1.5-0.4s-0.8-0.6-1-1.1s-0.4-1-0.4-1.6v-0.3c0-0.6,0.1-1.2,0.4-1.6s0.6-0.9,1-1.2s0.9-0.4,1.4-0.4
		c0.8,0,1.4,0.3,1.8,0.8s0.7,1.2,0.7,2.2v0.4h-4.5v0.1c0,0.7,0.2,1.3,0.6,1.8s0.9,0.7,1.6,0.7c0.4,0,0.7-0.1,1-0.2s0.5-0.4,0.8-0.7
		l0.4,0.3C436.7,545.1,436,545.5,435,545.5z M434.9,539.5c-0.5,0-1,0.2-1.3,0.6s-0.6,0.9-0.7,1.6h3.8v-0.1c0-0.6-0.2-1.1-0.5-1.5
		S435.4,539.5,434.9,539.5z"/>
	<path d="M444.4,541h2.6v0.7h-2.6v2.8h-0.7v-2.8h-2.5V541h2.5v-2.7h0.7V541z"/>
	<path d="M456.3,543.2c0-0.5-0.2-0.8-0.5-1.1s-0.9-0.5-1.8-0.8s-1.5-0.5-1.9-0.8c-0.6-0.4-0.9-1-0.9-1.6c0-0.7,0.3-1.2,0.8-1.6
		s1.2-0.6,2.1-0.6c0.6,0,1.1,0.1,1.5,0.3s0.8,0.5,1,0.9s0.4,0.8,0.4,1.3h-0.7c0-0.6-0.2-1.1-0.6-1.4c-0.4-0.4-0.9-0.5-1.6-0.5
		c-0.7,0-1.2,0.1-1.6,0.4c-0.4,0.3-0.6,0.7-0.6,1.1c0,0.4,0.2,0.8,0.5,1.1s0.9,0.5,1.7,0.7s1.3,0.4,1.7,0.7s0.7,0.5,0.9,0.8
		s0.3,0.7,0.3,1.1c0,0.7-0.3,1.2-0.8,1.6s-1.2,0.6-2.1,0.6c-0.6,0-1.2-0.1-1.7-0.3s-0.9-0.5-1.1-0.9s-0.4-0.8-0.4-1.3h0.7
		c0,0.6,0.2,1.1,0.7,1.4s1,0.5,1.8,0.5c0.7,0,1.2-0.1,1.6-0.4S456.3,543.7,456.3,543.2z"/>
	<path d="M460,543.9l0.1,0.5l0.1-0.6l1.5-4.9h0.6l1.5,4.8l0.2,0.7l0.1-0.6l1.3-4.9h0.7l-1.8,6.3h-0.6l-1.6-5L462,540l-0.1,0.4
		l-1.6,5h-0.6l-1.8-6.3h0.7L460,543.9z"/>
	<path d="M471.5,545.3c-0.1-0.2-0.1-0.5-0.1-0.9c-0.2,0.3-0.6,0.6-0.9,0.7s-0.8,0.3-1.2,0.3c-0.6,0-1.1-0.2-1.5-0.5
		s-0.6-0.8-0.6-1.3c0-0.6,0.3-1.1,0.8-1.5s1.2-0.5,2.1-0.5h1.3v-0.7c0-0.5-0.1-0.8-0.4-1.1s-0.7-0.4-1.2-0.4c-0.5,0-0.9,0.1-1.2,0.4
		s-0.5,0.6-0.5,0.9l-0.7,0c0-0.5,0.2-0.9,0.7-1.3s1-0.6,1.7-0.6c0.7,0,1.3,0.2,1.7,0.5s0.6,0.8,0.6,1.5v3c0,0.6,0.1,1.1,0.2,1.4v0.1
		H471.5z M469.3,544.8c0.5,0,0.9-0.1,1.3-0.3s0.6-0.5,0.8-0.9v-1.4h-1.3c-0.7,0-1.2,0.1-1.6,0.4s-0.6,0.6-0.6,1
		c0,0.4,0.1,0.7,0.4,0.9S468.9,544.8,469.3,544.8z"/>
	<path d="M479,542.2c0,1-0.2,1.8-0.7,2.4s-1,0.9-1.8,0.9c-0.9,0-1.5-0.3-2-0.9v3.2h-0.7V539h0.7l0,0.9c0.5-0.7,1.1-1,2-1
		c0.8,0,1.4,0.3,1.8,0.9S479,541.1,479,542.2L479,542.2z M478.3,542.1c0-0.8-0.2-1.4-0.5-1.9s-0.8-0.7-1.4-0.7
		c-0.4,0-0.8,0.1-1.1,0.3s-0.5,0.5-0.7,0.9v3c0.2,0.4,0.4,0.6,0.7,0.8s0.7,0.3,1.1,0.3c0.6,0,1-0.2,1.4-0.7S478.3,543,478.3,542.1z"
		/>
	<path d="M484,545.3v-5.8h-1V539h1v-0.8c0-0.6,0.2-1.1,0.5-1.5s0.8-0.5,1.4-0.5c0.3,0,0.5,0,0.7,0.1l-0.1,0.6
		c-0.2,0-0.4-0.1-0.6-0.1c-0.4,0-0.7,0.1-0.9,0.4s-0.3,0.6-0.3,1v0.8h1.5v0.6h-1.5v5.8H484z"/>
	<path d="M489.8,545.5c-0.5,0-1-0.1-1.5-0.4s-0.8-0.6-1-1.1s-0.4-1-0.4-1.6v-0.3c0-0.6,0.1-1.2,0.4-1.6s0.6-0.9,1-1.2
		s0.9-0.4,1.4-0.4c0.8,0,1.4,0.3,1.8,0.8s0.7,1.2,0.7,2.2v0.4h-4.5v0.1c0,0.7,0.2,1.3,0.6,1.8s0.9,0.7,1.6,0.7c0.4,0,0.7-0.1,1-0.2
		s0.5-0.4,0.8-0.7l0.4,0.3C491.5,545.1,490.8,545.5,489.8,545.5z M489.7,539.5c-0.5,0-1,0.2-1.3,0.6s-0.6,0.9-0.7,1.6h3.8v-0.1
		c0-0.6-0.2-1.1-0.5-1.5S490.2,539.5,489.7,539.5z"/>
	<path d="M496,545.5c-0.5,0-1-0.1-1.5-0.4s-0.8-0.6-1-1.1s-0.4-1-0.4-1.6v-0.3c0-0.6,0.1-1.2,0.4-1.6s0.6-0.9,1-1.2s0.9-0.4,1.4-0.4
		c0.8,0,1.4,0.3,1.8,0.8s0.7,1.2,0.7,2.2v0.4h-4.5v0.1c0,0.7,0.2,1.3,0.6,1.8s0.9,0.7,1.6,0.7c0.4,0,0.7-0.1,1-0.2s0.5-0.4,0.8-0.7
		l0.4,0.3C497.7,545.1,497,545.5,496,545.5z M495.9,539.5c-0.5,0-1,0.2-1.3,0.6s-0.6,0.9-0.7,1.6h3.8v-0.1c0-0.6-0.2-1.1-0.5-1.5
		S496.4,539.5,495.9,539.5z"/>
</g>
<g>
	<path d="M220.7,410.1v-2.9h-7.9v-0.7h7.9v-2.9h0.6v6.6H220.7z"/>
	<path d="M216.5,412.9l2.6,1.7v0.8l-3.1-2.2l-3.2,2.2v-0.8l2.7-1.8l-2.7-1.8v-0.8l3.2,2.2l3.1-2.2v0.8L216.5,412.9z"/>
	<path d="M216.7,424.5v-4h-4v-0.7h8.5v5.3h-0.6v-4.6h-3.3v4H216.7z"/>
	<path d="M212.6,428.7c0-0.5,0.1-1,0.4-1.5s0.6-0.8,1.1-1s1-0.4,1.6-0.4h0.3c0.6,0,1.2,0.1,1.6,0.4s0.9,0.6,1.2,1s0.4,0.9,0.4,1.4
		c0,0.8-0.3,1.4-0.8,1.8s-1.2,0.7-2.2,0.7h-0.4v-4.5h-0.1c-0.7,0-1.3,0.2-1.8,0.6s-0.7,0.9-0.7,1.6c0,0.4,0.1,0.7,0.2,1
		s0.4,0.5,0.7,0.8l-0.3,0.4C213,430.4,212.6,429.7,212.6,428.7z M218.6,428.6c0-0.5-0.2-1-0.6-1.3s-0.9-0.6-1.6-0.7v3.8h0.1
		c0.6,0,1.1-0.2,1.5-0.5S218.6,429.1,218.6,428.6z"/>
	<path d="M212.6,434.9c0-0.5,0.1-1,0.4-1.5s0.6-0.8,1.1-1s1-0.4,1.6-0.4h0.3c0.6,0,1.2,0.1,1.6,0.4s0.9,0.6,1.2,1s0.4,0.9,0.4,1.4
		c0,0.8-0.3,1.4-0.8,1.8s-1.2,0.7-2.2,0.7h-0.4v-4.5h-0.1c-0.7,0-1.3,0.2-1.8,0.6s-0.7,0.9-0.7,1.6c0,0.4,0.1,0.7,0.2,1
		s0.4,0.5,0.7,0.8l-0.3,0.4C213,436.6,212.6,435.9,212.6,434.9z M218.6,434.8c0-0.5-0.2-1-0.6-1.3s-0.9-0.6-1.6-0.7v3.8h0.1
		c0.6,0,1.1-0.2,1.5-0.5S218.6,435.3,218.6,434.8z"/>
</g>
<g>
	<path d="M505.6,541.7v-2.6h0.7v2.6h2.8v0.7h-2.8v2.5h-0.7v-2.5h-2.7v-0.7H505.6z"/>
	<path d="M507.8,529.8c-0.5,0-0.8,0.2-1.1,0.5s-0.5,0.9-0.8,1.8s-0.5,1.5-0.8,1.9c-0.4,0.6-1,0.9-1.6,0.9c-0.7,0-1.2-0.3-1.6-0.8
		s-0.6-1.2-0.6-2.1c0-0.6,0.1-1.1,0.3-1.5s0.5-0.8,0.9-1s0.8-0.4,1.3-0.4v0.7c-0.6,0-1.1,0.2-1.4,0.6c-0.4,0.4-0.5,0.9-0.5,1.6
		c0,0.7,0.1,1.2,0.4,1.6c0.3,0.4,0.7,0.6,1.1,0.6c0.4,0,0.8-0.2,1.1-0.5s0.5-0.9,0.7-1.7s0.4-1.3,0.7-1.7s0.5-0.7,0.8-0.9
		s0.7-0.3,1.1-0.3c0.7,0,1.2,0.3,1.6,0.8s0.6,1.2,0.6,2.1c0,0.6-0.1,1.2-0.3,1.7s-0.5,0.9-0.9,1.1s-0.8,0.4-1.3,0.4v-0.7
		c0.6,0,1.1-0.2,1.4-0.7s0.5-1,0.5-1.8c0-0.7-0.1-1.2-0.4-1.6S508.3,529.8,507.8,529.8z"/>
	<path d="M509.9,526.9v0.7h-9v-0.7H509.9z"/>
	<path d="M501.7,525c-0.1,0-0.2,0-0.3-0.1c-0.1-0.1-0.1-0.2-0.1-0.4s0-0.3,0.1-0.4c0.1-0.1,0.2-0.1,0.3-0.1s0.2,0,0.3,0.1
		s0.1,0.2,0.1,0.4s0,0.3-0.1,0.4S501.8,525,501.7,525z M509.9,524.2v0.7h-6.3v-0.7H509.9z"/>
	<path d="M506.8,517.2c1,0,1.8,0.2,2.4,0.7s0.9,1,0.9,1.8c0,0.9-0.3,1.5-0.9,2h3.2v0.7h-8.8v-0.7l0.9,0c-0.7-0.5-1-1.1-1-2
		c0-0.8,0.3-1.4,0.9-1.8S505.7,517.2,506.8,517.2L506.8,517.2z M506.7,517.9c-0.8,0-1.4,0.2-1.9,0.5s-0.7,0.8-0.7,1.4
		c0,0.4,0.1,0.8,0.3,1.1s0.5,0.5,0.9,0.7h3c0.4-0.2,0.6-0.4,0.8-0.7s0.3-0.7,0.3-1.1c0-0.6-0.2-1-0.7-1.4S507.6,517.9,506.7,517.9z"
		/>
	<path d="M506.8,510.5c1,0,1.8,0.2,2.4,0.7s0.9,1,0.9,1.8c0,0.9-0.3,1.5-0.9,2h3.2v0.7h-8.8V515l0.9,0c-0.7-0.5-1-1.1-1-2
		c0-0.8,0.3-1.4,0.9-1.8S505.7,510.5,506.8,510.5L506.8,510.5z M506.7,511.2c-0.8,0-1.4,0.2-1.9,0.5s-0.7,0.8-0.7,1.4
		c0,0.4,0.1,0.8,0.3,1.1s0.5,0.5,0.9,0.7h3c0.4-0.2,0.6-0.4,0.8-0.7s0.3-0.7,0.3-1.1c0-0.6-0.2-1-0.7-1.4S507.6,511.2,506.7,511.2z"
		/>
	<path d="M509.9,505c-0.2,0.1-0.5,0.1-0.9,0.1c0.3,0.2,0.6,0.6,0.7,0.9s0.3,0.8,0.3,1.2c0,0.6-0.2,1.1-0.5,1.5s-0.8,0.6-1.3,0.6
		c-0.6,0-1.1-0.3-1.5-0.8s-0.5-1.2-0.5-2.1v-1.3h-0.7c-0.5,0-0.8,0.1-1.1,0.4s-0.4,0.7-0.4,1.2c0,0.5,0.1,0.9,0.4,1.2
		s0.6,0.5,0.9,0.5l0,0.7c-0.5,0-0.9-0.2-1.3-0.7s-0.6-1-0.6-1.7c0-0.7,0.2-1.3,0.5-1.7s0.8-0.6,1.5-0.6h3c0.6,0,1.1-0.1,1.4-0.2h0.1
		V505z M509.4,507.2c0-0.5-0.1-0.9-0.3-1.3s-0.5-0.6-0.9-0.8h-1.4v1.3c0,0.7,0.1,1.2,0.4,1.6s0.6,0.6,1,0.6c0.4,0,0.7-0.1,0.9-0.4
		S509.4,507.6,509.4,507.2z"/>
	<path d="M506.7,502.8c-1,0-1.8-0.2-2.4-0.7s-0.9-1-0.9-1.8c0-0.9,0.3-1.5,1-2l-0.9,0v-0.7h6.2c0.8,0,1.5,0.2,1.9,0.7
		s0.7,1.1,0.7,1.9c0,0.4-0.1,0.9-0.3,1.3s-0.5,0.7-0.8,0.9l-0.4-0.4c0.6-0.5,0.9-1.1,0.9-1.8c0-0.6-0.2-1-0.5-1.4s-0.8-0.5-1.4-0.5
		h-0.8c0.6,0.4,0.9,1.1,0.9,2c0,0.7-0.3,1.3-0.9,1.8S507.7,502.8,506.7,502.8L506.7,502.8z M506.8,502.1c0.8,0,1.4-0.2,1.9-0.5
		s0.7-0.8,0.7-1.4c0-0.9-0.4-1.5-1.2-1.8h-2.9c-0.4,0.2-0.7,0.4-0.9,0.7s-0.3,0.7-0.3,1.1c0,0.6,0.2,1,0.7,1.4
		S505.9,502.1,506.8,502.1z"/>
	<path d="M510,493.4c0,0.5-0.1,1-0.4,1.5s-0.6,0.8-1.1,1s-1,0.4-1.6,0.4h-0.3c-0.6,0-1.2-0.1-1.6-0.4s-0.9-0.6-1.2-1
		s-0.4-0.9-0.4-1.4c0-0.8,0.3-1.4,0.8-1.8s1.2-0.7,2.2-0.7h0.4v4.5h0.1c0.7,0,1.3-0.2,1.8-0.6s0.7-0.9,0.7-1.6c0-0.4-0.1-0.7-0.2-1
		s-0.4-0.5-0.7-0.8l0.3-0.4C509.6,491.7,510,492.5,510,493.4z M504,493.6c0,0.5,0.2,1,0.6,1.3s0.9,0.6,1.6,0.7v-3.8h-0.1
		c-0.6,0-1.1,0.2-1.5,0.5S504,493,504,493.6z"/>
</g>
<g>
	<path d="M465.9,345.7h-2.9v7.9h-0.7v-7.9h-2.9v-0.6h6.6V345.7z"/>
	<path d="M468.6,349.9l1.7-2.6h0.8l-2.2,3.1l2.2,3.2h-0.8l-1.8-2.7l-1.8,2.7H466l2.2-3.2l-2.2-3.1h0.8L468.6,349.9z"/>
	<path d="M480.2,349.7h-4v4h-0.7v-8.5h5.3v0.6h-4.6v3.3h4V349.7z"/>
	<path d="M484.5,353.8c-0.5,0-1-0.1-1.5-0.4s-0.8-0.6-1-1.1s-0.4-1-0.4-1.6v-0.3c0-0.6,0.1-1.2,0.4-1.6s0.6-0.9,1-1.2
		s0.9-0.4,1.4-0.4c0.8,0,1.4,0.3,1.8,0.8s0.7,1.2,0.7,2.2v0.4h-4.5v0.1c0,0.7,0.2,1.3,0.6,1.8s0.9,0.7,1.6,0.7c0.4,0,0.7-0.1,1-0.2
		s0.5-0.4,0.8-0.7l0.4,0.3C486.2,353.4,485.4,353.8,484.5,353.8z M484.3,347.8c-0.5,0-1,0.2-1.3,0.6s-0.6,0.9-0.7,1.6h3.8v-0.1
		c0-0.6-0.2-1.1-0.5-1.5S484.9,347.8,484.3,347.8z"/>
	<path d="M490.7,353.8c-0.5,0-1-0.1-1.5-0.4s-0.8-0.6-1-1.1s-0.4-1-0.4-1.6v-0.3c0-0.6,0.1-1.2,0.4-1.6s0.6-0.9,1-1.2
		s0.9-0.4,1.4-0.4c0.8,0,1.4,0.3,1.8,0.8s0.7,1.2,0.7,2.2v0.4h-4.5v0.1c0,0.7,0.2,1.3,0.6,1.8s0.9,0.7,1.6,0.7c0.4,0,0.7-0.1,1-0.2
		s0.5-0.4,0.8-0.7l0.4,0.3C492.4,353.4,491.6,353.8,490.7,353.8z M490.5,347.8c-0.5,0-1,0.2-1.3,0.6s-0.6,0.9-0.7,1.6h3.8v-0.1
		c0-0.6-0.2-1.1-0.5-1.5S491.1,347.8,490.5,347.8z"/>
	<path d="M500.1,349.3h2.6v0.7h-2.6v2.8h-0.7V350h-2.5v-0.7h2.5v-2.7h0.7V349.3z"/>
</g>
<g>
	<path d="M498.2,363.1c0.5,0,0.8-0.2,1.1-0.5s0.5-0.9,0.8-1.8s0.5-1.5,0.8-1.9c0.4-0.6,1-0.9,1.6-0.9c0.7,0,1.2,0.3,1.6,0.8
		s0.6,1.2,0.6,2.1c0,0.6-0.1,1.1-0.3,1.5s-0.5,0.8-0.9,1s-0.8,0.4-1.3,0.4v-0.7c0.6,0,1.1-0.2,1.4-0.6c0.4-0.4,0.5-0.9,0.5-1.6
		c0-0.7-0.1-1.2-0.4-1.6c-0.3-0.4-0.7-0.6-1.1-0.6c-0.4,0-0.8,0.2-1.1,0.5s-0.5,0.9-0.7,1.7s-0.4,1.3-0.7,1.7s-0.5,0.7-0.8,0.9
		s-0.7,0.3-1.1,0.3c-0.7,0-1.2-0.3-1.6-0.8s-0.6-1.2-0.6-2.1c0-0.6,0.1-1.2,0.3-1.7s0.5-0.9,0.9-1.1s0.8-0.4,1.3-0.4v0.7
		c-0.6,0-1.1,0.2-1.4,0.7s-0.5,1-0.5,1.8c0,0.7,0.1,1.2,0.4,1.6S497.7,363.1,498.2,363.1z"/>
	<path d="M497.5,366.8l-0.5,0.1l0.6,0.1l4.9,1.5v0.6l-4.8,1.5l-0.7,0.2l0.6,0.1l4.9,1.3v0.7l-6.3-1.8v-0.6l5-1.6l0.3-0.1l-0.4-0.1
		l-5-1.6v-0.6l6.3-1.8v0.7L497.5,366.8z"/>
	<path d="M496.1,378.3c0.2-0.1,0.5-0.1,0.9-0.1c-0.3-0.2-0.6-0.6-0.7-0.9s-0.3-0.8-0.3-1.2c0-0.6,0.2-1.1,0.5-1.5s0.8-0.6,1.3-0.6
		c0.6,0,1.1,0.3,1.5,0.8s0.5,1.2,0.5,2.1v1.3h0.7c0.5,0,0.8-0.1,1.1-0.4s0.4-0.7,0.4-1.2c0-0.5-0.1-0.9-0.4-1.2s-0.6-0.5-0.9-0.5
		l0-0.7c0.5,0,0.9,0.2,1.3,0.7s0.6,1,0.6,1.7c0,0.7-0.2,1.3-0.5,1.7s-0.8,0.6-1.5,0.6h-3c-0.6,0-1.1,0.1-1.4,0.2h-0.1V378.3z
		 M496.6,376.1c0,0.5,0.1,0.9,0.3,1.3s0.5,0.6,0.9,0.8h1.4v-1.3c0-0.7-0.1-1.2-0.4-1.6s-0.6-0.6-1-0.6c-0.4,0-0.7,0.1-0.9,0.4
		S496.6,375.7,496.6,376.1z"/>
	<path d="M499.2,385.8c-1,0-1.8-0.2-2.4-0.7s-0.9-1-0.9-1.8c0-0.9,0.3-1.5,0.9-2h-3.2v-0.7h8.8v0.7l-0.9,0c0.7,0.5,1,1.1,1,2
		c0,0.8-0.3,1.4-0.9,1.8S500.3,385.8,499.2,385.8L499.2,385.8z M499.3,385.1c0.8,0,1.4-0.2,1.9-0.5s0.7-0.8,0.7-1.4
		c0-0.4-0.1-0.8-0.3-1.1s-0.5-0.5-0.9-0.7h-3c-0.4,0.2-0.6,0.4-0.8,0.7s-0.3,0.7-0.3,1.1c0,0.6,0.2,1,0.7,1.4
		S498.4,385.1,499.3,385.1z"/>
	<path d="M500.1,395.2v-4h-4v-0.7h8.5v5.3H504v-4.6h-3.3v4H500.1z"/>
	<path d="M496,399.4c0-0.5,0.1-1,0.4-1.5s0.6-0.8,1.1-1s1-0.4,1.6-0.4h0.3c0.6,0,1.2,0.1,1.6,0.4s0.9,0.6,1.2,1s0.4,0.9,0.4,1.4
		c0,0.8-0.3,1.4-0.8,1.8s-1.2,0.7-2.2,0.7h-0.4v-4.5h-0.1c-0.7,0-1.3,0.2-1.8,0.6s-0.7,0.9-0.7,1.6c0,0.4,0.1,0.7,0.2,1
		s0.4,0.5,0.7,0.8l-0.3,0.4C496.3,401.1,496,400.4,496,399.4z M501.9,399.3c0-0.5-0.2-1-0.6-1.3s-0.9-0.6-1.6-0.7v3.8h0.1
		c0.6,0,1.1-0.2,1.5-0.5S501.9,399.8,501.9,399.3z"/>
	<path d="M496,405.6c0-0.5,0.1-1,0.4-1.5s0.6-0.8,1.1-1s1-0.4,1.6-0.4h0.3c0.6,0,1.2,0.1,1.6,0.4s0.9,0.6,1.2,1s0.4,0.9,0.4,1.4
		c0,0.8-0.3,1.4-0.8,1.8s-1.2,0.7-2.2,0.7h-0.4v-4.5h-0.1c-0.7,0-1.3,0.2-1.8,0.6s-0.7,0.9-0.7,1.6c0,0.4,0.1,0.7,0.2,1
		s0.4,0.5,0.7,0.8l-0.3,0.4C496.3,407.3,496,406.6,496,405.6z M501.9,405.5c0-0.5-0.2-1-0.6-1.3s-0.9-0.6-1.6-0.7v3.8h0.1
		c0.6,0,1.1-0.2,1.5-0.5S501.9,406,501.9,405.5z"/>
</g>
<g>
	<path d="M483.5,365.8v2.6h-0.7v-2.6h-2.8v-0.7h2.8v-2.5h0.7v2.5h2.7v0.7H483.5z"/>
	<path d="M481.3,377.7c0.5,0,0.8-0.2,1.1-0.5s0.5-0.9,0.8-1.8s0.5-1.5,0.8-1.9c0.4-0.6,1-0.9,1.6-0.9c0.7,0,1.2,0.3,1.6,0.8
		s0.6,1.2,0.6,2.1c0,0.6-0.1,1.1-0.3,1.5s-0.5,0.8-0.9,1s-0.8,0.4-1.3,0.4v-0.7c0.6,0,1.1-0.2,1.4-0.6c0.4-0.4,0.5-0.9,0.5-1.6
		c0-0.7-0.1-1.2-0.4-1.6c-0.3-0.4-0.7-0.6-1.1-0.6c-0.4,0-0.8,0.2-1.1,0.5s-0.5,0.9-0.7,1.7s-0.4,1.3-0.7,1.7s-0.5,0.7-0.8,0.9
		s-0.7,0.3-1.1,0.3c-0.7,0-1.2-0.3-1.6-0.8s-0.6-1.2-0.6-2.1c0-0.6,0.1-1.2,0.3-1.7s0.5-0.9,0.9-1.1s0.8-0.4,1.3-0.4v0.7
		c-0.6,0-1.1,0.2-1.4,0.7s-0.5,1-0.5,1.8c0,0.7,0.1,1.2,0.4,1.6S480.8,377.7,481.3,377.7z"/>
	<path d="M479.2,380.6v-0.7h9v0.7H479.2z"/>
	<path d="M479.2,383.3v-0.7h6.3v0.7H479.2z M487.4,382.5c0.1,0,0.2,0,0.3,0.1c0.1,0.1,0.1,0.2,0.1,0.4s0,0.3-0.1,0.4
		c-0.1,0.1-0.2,0.1-0.3,0.1s-0.2,0-0.3-0.1s-0.1-0.2-0.1-0.4s0-0.3,0.1-0.4S487.2,382.5,487.4,382.5z"/>
	<path d="M482.3,390.3c-1,0-1.8-0.2-2.4-0.7s-0.9-1-0.9-1.8c0-0.9,0.3-1.5,0.9-2h-3.2v-0.7h8.8v0.7l-0.9,0c0.7,0.5,1,1.1,1,2
		c0,0.8-0.3,1.4-0.9,1.8S483.4,390.3,482.3,390.3L482.3,390.3z M482.4,389.6c0.8,0,1.4-0.2,1.9-0.5s0.7-0.8,0.7-1.4
		c0-0.4-0.1-0.8-0.3-1.1s-0.5-0.5-0.9-0.7h-3c-0.4,0.2-0.6,0.4-0.8,0.7s-0.3,0.7-0.3,1.1c0,0.6,0.2,1,0.7,1.4
		S481.5,389.6,482.4,389.6z"/>
	<path d="M482.3,397c-1,0-1.8-0.2-2.4-0.7s-0.9-1-0.9-1.8c0-0.9,0.3-1.5,0.9-2h-3.2v-0.7h8.8v0.7l-0.9,0c0.7,0.5,1,1.1,1,2
		c0,0.8-0.3,1.4-0.9,1.8S483.4,397,482.3,397L482.3,397z M482.4,396.2c0.8,0,1.4-0.2,1.9-0.5s0.7-0.8,0.7-1.4c0-0.4-0.1-0.8-0.3-1.1
		s-0.5-0.5-0.9-0.7h-3c-0.4,0.2-0.6,0.4-0.8,0.7s-0.3,0.7-0.3,1.1c0,0.6,0.2,1,0.7,1.4S481.5,396.2,482.4,396.2z"/>
	<path d="M479.2,402.5c0.2-0.1,0.5-0.1,0.9-0.1c-0.3-0.2-0.6-0.6-0.7-0.9s-0.3-0.8-0.3-1.2c0-0.6,0.2-1.1,0.5-1.5s0.8-0.6,1.3-0.6
		c0.6,0,1.1,0.3,1.5,0.8s0.5,1.2,0.5,2.1v1.3h0.7c0.5,0,0.8-0.1,1.1-0.4s0.4-0.7,0.4-1.2c0-0.5-0.1-0.9-0.4-1.2s-0.6-0.5-0.9-0.5
		l0-0.7c0.5,0,0.9,0.2,1.3,0.7s0.6,1,0.6,1.7c0,0.7-0.2,1.3-0.5,1.7s-0.8,0.6-1.5,0.6h-3c-0.6,0-1.1,0.1-1.4,0.2h-0.1V402.5z
		 M479.7,400.3c0,0.5,0.1,0.9,0.3,1.3s0.5,0.6,0.9,0.8h1.4v-1.3c0-0.7-0.1-1.2-0.4-1.6s-0.6-0.6-1-0.6c-0.4,0-0.7,0.1-0.9,0.4
		S479.7,399.9,479.7,400.3z"/>
	<path d="M482.4,404.7c1,0,1.8,0.2,2.4,0.7s0.9,1,0.9,1.8c0,0.9-0.3,1.5-1,2l0.9,0v0.7h-6.2c-0.8,0-1.5-0.2-1.9-0.7
		s-0.7-1.1-0.7-1.9c0-0.4,0.1-0.9,0.3-1.3s0.5-0.7,0.8-0.9l0.4,0.4c-0.6,0.5-0.9,1.1-0.9,1.8c0,0.6,0.2,1,0.5,1.4s0.8,0.5,1.4,0.5
		h0.8c-0.6-0.4-0.9-1.1-0.9-2c0-0.7,0.3-1.3,0.9-1.8S481.3,404.7,482.4,404.7L482.4,404.7z M482.3,405.4c-0.8,0-1.4,0.2-1.9,0.5
		s-0.7,0.8-0.7,1.4c0,0.9,0.4,1.5,1.2,1.8h2.9c0.4-0.2,0.7-0.4,0.9-0.7s0.3-0.7,0.3-1.1c0-0.6-0.2-1-0.7-1.4
		S483.2,405.4,482.3,405.4z"/>
	<path d="M479.1,414c0-0.5,0.1-1,0.4-1.5s0.6-0.8,1.1-1s1-0.4,1.6-0.4h0.3c0.6,0,1.2,0.1,1.6,0.4s0.9,0.6,1.2,1s0.4,0.9,0.4,1.4
		c0,0.8-0.3,1.4-0.8,1.8s-1.2,0.7-2.2,0.7h-0.4v-4.5h-0.1c-0.7,0-1.3,0.2-1.8,0.6s-0.7,0.9-0.7,1.6c0,0.4,0.1,0.7,0.2,1
		s0.4,0.5,0.7,0.8l-0.3,0.4C479.5,415.8,479.1,415,479.1,414z M485.1,413.9c0-0.5-0.2-1-0.6-1.3s-0.9-0.6-1.6-0.7v3.8h0.1
		c0.6,0,1.1-0.2,1.5-0.5S485.1,414.4,485.1,413.9z"/>
</g>
<g>
	<path d="M284.5,346.4h-2.9v7.9h-0.7v-7.9H278v-0.6h6.6V346.4z"/>
	<path d="M287.3,350.6l1.7-2.6h0.8l-2.2,3.1l2.2,3.2h-0.8l-1.8-2.7l-1.8,2.7h-0.8l2.2-3.2l-2.2-3.1h0.8L287.3,350.6z"/>
	<path d="M298.9,350.3h-4v4h-0.7v-8.5h5.3v0.6h-4.6v3.3h4V350.3z"/>
	<path d="M303.1,354.5c-0.5,0-1-0.1-1.5-0.4s-0.8-0.6-1-1.1s-0.4-1-0.4-1.6v-0.3c0-0.6,0.1-1.2,0.4-1.6s0.6-0.9,1-1.2
		s0.9-0.4,1.4-0.4c0.8,0,1.4,0.3,1.8,0.8s0.7,1.2,0.7,2.2v0.4H301v0.1c0,0.7,0.2,1.3,0.6,1.8s0.9,0.7,1.6,0.7c0.4,0,0.7-0.1,1-0.2
		s0.5-0.4,0.8-0.7l0.4,0.3C304.9,354.1,304.1,354.5,303.1,354.5z M303,348.5c-0.5,0-1,0.2-1.3,0.6s-0.6,0.9-0.7,1.6h3.8v-0.1
		c0-0.6-0.2-1.1-0.5-1.5S303.5,348.5,303,348.5z"/>
	<path d="M309.3,354.5c-0.5,0-1-0.1-1.5-0.4s-0.8-0.6-1-1.1s-0.4-1-0.4-1.6v-0.3c0-0.6,0.1-1.2,0.4-1.6s0.6-0.9,1-1.2
		s0.9-0.4,1.4-0.4c0.8,0,1.4,0.3,1.8,0.8s0.7,1.2,0.7,2.2v0.4h-4.5v0.1c0,0.7,0.2,1.3,0.6,1.8s0.9,0.7,1.6,0.7c0.4,0,0.7-0.1,1-0.2
		s0.5-0.4,0.8-0.7l0.4,0.3C311.1,354.1,310.3,354.5,309.3,354.5z M309.2,348.5c-0.5,0-1,0.2-1.3,0.6s-0.6,0.9-0.7,1.6h3.8v-0.1
		c0-0.6-0.2-1.1-0.5-1.5S309.7,348.5,309.2,348.5z"/>
</g>
<g>
</g>
<g>
</g>
<g>
</g>
<g>
</g>
<g>
</g>
<g>
</g>
<g>
</g>
<g>
</g>
<g>
</g>
<g>
</g>
<g>
</g>
<g>
</g>
<g>
</g>
<g>
</g>
<g>
</g>
<g>
</g>
</svg>
