<svg xmlns="http://www.w3.org/2000/svg" viewBox="0 0 376 243"><defs><style>.cls-1{fill:#e6e6e6;}.cls-2{fill:#fff;}.cls-3,.cls-4{fill:none;stroke:#000;stroke-miterlimit:10;}.cls-4{stroke-dasharray:1 1;}</style></defs><title>Asset 1</title><g id="Layer_2" data-name="Layer 2"><g id="Layer_1-2" data-name="Layer 1"><path class="cls-1" d="M327,106h36.71A11.29,11.29,0,0,1,375,117.29v23.42A11.29,11.29,0,0,1,363.71,152H327a0,0,0,0,1,0,0V106A0,0,0,0,1,327,106Z"/><rect class="cls-2" x="0.5" y="0.5" width="87" height="56" rx="16.5" ry="16.5"/><path d="M71,1A16,16,0,0,1,87,17V40A16,16,0,0,1,71,56H17A16,16,0,0,1,1,40V17A16,16,0,0,1,17,1H71m0-1H17A17,17,0,0,0,0,17V40A17,17,0,0,0,17,57H71A17,17,0,0,0,88,40V17A17,17,0,0,0,71,0Z"/><path d="M30.21,40.57H43.56V42.5H27.91v-27h2.3Z"/><path d="M50.22,31.5v11H47.93v-27h9.2a9.7,9.7,0,0,1,6.65,2.15,7.49,7.49,0,0,1,2.44,5.92,7.41,7.41,0,0,1-2.35,5.87q-2.35,2.07-6.8,2.07Zm0-1.93h6.92A7.3,7.3,0,0,0,62.2,28a5.64,5.64,0,0,0,1.74-4.4,5.9,5.9,0,0,0-1.73-4.47,7,7,0,0,0-4.93-1.7H50.22Z"/><line class="cls-3" x1="87.5" y1="28.5" x2="169.32" y2="28.5"/><polygon points="167.87 33.49 176.5 28.5 167.87 23.51 167.87 33.49"/><rect class="cls-3" x="176.5" y="0.5" width="95" height="55" rx="12" ry="12"/><path d="M200.08,35.06A3.8,3.8,0,0,0,199,32.22a11,11,0,0,0-4-2.09,11.52,11.52,0,0,1-5-2.63,5.55,5.55,0,0,1-1.42-3.95,5.64,5.64,0,0,1,1.56-4.13,6.47,6.47,0,0,1,4.25-1.8V14.46H196v3.16a6,6,0,0,1,4.26,2.05,7.43,7.43,0,0,1,1.51,4.92h-1.86a5.69,5.69,0,0,0-1.27-3.9,4.4,4.4,0,0,0-3.48-1.45,4.86,4.86,0,0,0-3.46,1.17,4.06,4.06,0,0,0-1.24,3.11,3.8,3.8,0,0,0,1.14,2.93,11.14,11.14,0,0,0,3.88,2,17.27,17.27,0,0,1,4,1.78,5.68,5.68,0,0,1,1.86,2A5.89,5.89,0,0,1,202,35a5.53,5.53,0,0,1-1.6,4.13,6.81,6.81,0,0,1-4.4,1.79v3h-1.58V41a7.13,7.13,0,0,1-4.86-2,6.67,6.67,0,0,1-1.72-4.85h1.88A5.08,5.08,0,0,0,191.09,38a5.45,5.45,0,0,0,4,1.38,5.39,5.39,0,0,0,3.62-1.19A3.87,3.87,0,0,0,200.08,35.06Z"/><path d="M209.16,17.92,217.55,38,226,17.92h2.56V40.67h-1.92V30.76l.16-10.16L218.3,40.67h-1.48l-8.44-20,.16,10v10h-1.92V17.92Z"/><path d="M236.64,40.67h-1.92V17.92h1.92Z"/><path d="M251.31,31.18H244.7v9.48h-1.94V17.92h7.39a8.44,8.44,0,0,1,5.69,1.76,6.16,6.16,0,0,1,2,4.93,6.16,6.16,0,0,1-1.28,3.85,6.55,6.55,0,0,1-3.44,2.31l5.69,9.69v.2h-2Zm-6.61-1.62h5.89a5.46,5.46,0,0,0,3.89-1.38A4.67,4.67,0,0,0,256,24.61a4.69,4.69,0,0,0-1.53-3.74,6.35,6.35,0,0,0-4.3-1.33H244.7Z"/><path class="cls-3" d="M327,98.83V27.49H271.5"/><polygon points="331.99 97.36 327 106 322.01 97.36 331.99 97.36"/><rect class="cls-3" x="275.5" y="105.5" width="100" height="46" rx="12" ry="12"/><path d="M300.08,135.39a3.8,3.8,0,0,0-1.12-2.84,11,11,0,0,0-4-2.09,11.52,11.52,0,0,1-5-2.63,5.55,5.55,0,0,1-1.42-3.95,5.64,5.64,0,0,1,1.56-4.13,6.47,6.47,0,0,1,4.25-1.8V114.8H296V118a6,6,0,0,1,4.26,2.05,7.43,7.43,0,0,1,1.51,4.92h-1.86a5.69,5.69,0,0,0-1.27-3.9,4.4,4.4,0,0,0-3.48-1.45,4.86,4.86,0,0,0-3.46,1.17,4.06,4.06,0,0,0-1.24,3.11,3.8,3.8,0,0,0,1.14,2.93,11.14,11.14,0,0,0,3.88,2,17.27,17.27,0,0,1,4,1.78,5.68,5.68,0,0,1,1.86,2,5.89,5.89,0,0,1,.62,2.79,5.53,5.53,0,0,1-1.6,4.13,6.81,6.81,0,0,1-4.4,1.79v3h-1.58v-3a7.13,7.13,0,0,1-4.86-2,6.67,6.67,0,0,1-1.72-4.85h1.88a5.08,5.08,0,0,0,1.42,3.82,5.45,5.45,0,0,0,4,1.38,5.39,5.39,0,0,0,3.62-1.19A3.87,3.87,0,0,0,300.08,135.39Z"/><path d="M322.28,118.25v15.53a7.87,7.87,0,0,1-1,4,6.66,6.66,0,0,1-2.82,2.62,9.19,9.19,0,0,1-4.18.91,8.24,8.24,0,0,1-5.76-2,7.19,7.19,0,0,1-2.24-5.43V118.25h1.91v15.39a5.91,5.91,0,0,0,1.64,4.46,7,7,0,0,0,8.9,0,5.92,5.92,0,0,0,1.63-4.44V118.25Z"/><path d="M340.52,135.41a3.68,3.68,0,0,0-1.33-3,14,14,0,0,0-4.86-2.09,17,17,0,0,1-5.16-2.16,5.25,5.25,0,0,1-.16-8.59,8.82,8.82,0,0,1,5.49-1.63,9.12,9.12,0,0,1,4.05.88,6.64,6.64,0,0,1,2.77,2.44,6.4,6.4,0,0,1,1,3.48h-1.94a4.78,4.78,0,0,0-1.59-3.75,6.2,6.2,0,0,0-4.28-1.42,6.74,6.74,0,0,0-4.16,1.17,3.64,3.64,0,0,0-1.55,3,3.44,3.44,0,0,0,1.39,2.83,12.89,12.89,0,0,0,4.45,1.93,20.93,20.93,0,0,1,4.64,1.74,6.62,6.62,0,0,1,2.38,2.15,5.38,5.38,0,0,1,.8,3,5.14,5.14,0,0,1-2.15,4.31,9.15,9.15,0,0,1-5.66,1.63,11.1,11.1,0,0,1-4.41-.86,6.74,6.74,0,0,1-3-2.41,6.21,6.21,0,0,1-1-3.55h1.92a4.54,4.54,0,0,0,1.8,3.8,7.6,7.6,0,0,0,4.78,1.39,7.09,7.09,0,0,0,4.27-1.17A3.66,3.66,0,0,0,340.52,135.41Z"/><path d="M362,119.88h-7.8V141h-1.92V119.88h-7.78v-1.62H362Z"/><line class="cls-3" x1="327.5" y1="106" x2="327.5" y2="106.5"/><line class="cls-4" x1="327.5" y1="107.5" x2="327.5" y2="151"/><line class="cls-3" x1="327.5" y1="151.5" x2="327.5" y2="152"/><path class="cls-3" d="M229.18,220H349.48c0-8.82,0-68.5,0-68.5"/><polygon points="230.63 224.99 222 220 230.63 215.01 230.63 224.99"/><rect class="cls-3" x="96.5" y="197.5" width="125" height="45" rx="12" ry="12"/><path d="M109.81,212.43l.06,2.75a6.26,6.26,0,0,1,2.34-2.3,6.42,6.42,0,0,1,3.13-.77q4,0,5.08,3.28a6.34,6.34,0,0,1,2.42-2.43,6.71,6.71,0,0,1,3.34-.85q5.44,0,5.55,5.94v11.28h-1.87V218.19a5,5,0,0,0-1-3.36,4,4,0,0,0-3.13-1.09,5,5,0,0,0-3.41,1.3,4.61,4.61,0,0,0-1.55,3.1v11.19h-1.87V218.05a4.63,4.63,0,0,0-1-3.24,4.07,4.07,0,0,0-3.1-1.07,4.72,4.72,0,0,0-3,1,5.91,5.91,0,0,0-1.87,3v11.59H108V212.43Z"/><path d="M149.18,222.94H138.85l-2.34,6.39h-2l8.61-22.75h1.83l8.61,22.75h-2Zm-9.73-1.62h9.13L144,208.93Z"/><path d="M166.57,225a2.66,2.66,0,0,0-1.12-2.23,8.63,8.63,0,0,0-3.37-1.32,15.14,15.14,0,0,1-3.49-1.09,4.65,4.65,0,0,1-1.84-1.51,3.76,3.76,0,0,1-.6-2.16,4,4,0,0,1,1.67-3.3,6.75,6.75,0,0,1,4.28-1.3,7,7,0,0,1,4.54,1.4,4.49,4.49,0,0,1,1.71,3.65h-1.87a3,3,0,0,0-1.24-2.47,5.61,5.61,0,0,0-6.09-.16,2.53,2.53,0,0,0-1.12,2.13,2.3,2.3,0,0,0,.93,2,9.81,9.81,0,0,0,3.39,1.27,16,16,0,0,1,3.69,1.23,4.78,4.78,0,0,1,1.82,1.58,4.34,4.34,0,0,1-1.13,5.66,7.38,7.38,0,0,1-4.51,1.28,7.57,7.57,0,0,1-4.79-1.43,4.4,4.4,0,0,1-1.84-3.62h1.88a3.25,3.25,0,0,0,1.38,2.55,5.65,5.65,0,0,0,3.37.91,5.31,5.31,0,0,0,3.16-.86A2.58,2.58,0,0,0,166.57,225Z"/><path d="M182.78,225a2.66,2.66,0,0,0-1.12-2.23,8.63,8.63,0,0,0-3.37-1.32,15.14,15.14,0,0,1-3.49-1.09,4.65,4.65,0,0,1-1.84-1.51,3.76,3.76,0,0,1-.6-2.16,4,4,0,0,1,1.67-3.3,6.75,6.75,0,0,1,4.28-1.3,7,7,0,0,1,4.54,1.4,4.49,4.49,0,0,1,1.71,3.65h-1.87a3,3,0,0,0-1.24-2.47,5.61,5.61,0,0,0-6.09-.16,2.53,2.53,0,0,0-1.12,2.13,2.3,2.3,0,0,0,.93,2,9.81,9.81,0,0,0,3.39,1.27,16,16,0,0,1,3.69,1.23,4.78,4.78,0,0,1,1.82,1.58,4.34,4.34,0,0,1-1.13,5.66,7.38,7.38,0,0,1-4.51,1.28,7.57,7.57,0,0,1-4.79-1.43,4.4,4.4,0,0,1-1.84-3.62h1.88a3.25,3.25,0,0,0,1.38,2.55,5.65,5.65,0,0,0,3.37.91,5.31,5.31,0,0,0,3.16-.86A2.58,2.58,0,0,0,182.78,225Z"/><path d="M195.4,229.65a7.33,7.33,0,0,1-3.9-1.06,7.24,7.24,0,0,1-2.71-3,9.23,9.23,0,0,1-1-4.26v-.67a10,10,0,0,1,.95-4.39,7.52,7.52,0,0,1,2.63-3.07,6.49,6.49,0,0,1,3.66-1.12,6.1,6.1,0,0,1,4.88,2.1,8.53,8.53,0,0,1,1.8,5.74v1H189.68v.36a7.08,7.08,0,0,0,1.65,4.79,5.24,5.24,0,0,0,4.15,1.91,6.08,6.08,0,0,0,2.65-.55,5.86,5.86,0,0,0,2.09-1.75l1.17.89A6.82,6.82,0,0,1,195.4,229.65Zm-.34-15.94a4.67,4.67,0,0,0-3.55,1.55,7.14,7.14,0,0,0-1.76,4.16h10.14v-.2a6.2,6.2,0,0,0-1.39-4A4.31,4.31,0,0,0,195.06,213.71Z"/><path d="M208.29,208.1v4.33h3.5V214h-3.5v11.28a3.53,3.53,0,0,0,.51,2.1,2,2,0,0,0,1.7.69,11.58,11.58,0,0,0,1.52-.16l.08,1.52a6.1,6.1,0,0,1-2,.26,3.33,3.33,0,0,1-2.8-1.12,5.26,5.26,0,0,1-.87-3.29V214h-3.11v-1.53h3.11V208.1Z"/><path class="cls-3" d="M96,219H42.5c0-.58,0-1.16,0-1.16V63.18"/><polygon points="47.49 64.64 42.5 56 37.51 64.64 47.49 64.64"/><line class="cls-3" x1="275.5" y1="128.5" x2="172.18" y2="128.5"/><polygon points="173.63 123.51 165 128.5 173.63 133.49 173.63 123.51"/><line class="cls-3" x1="172.5" y1="128.5" x2="42.5" y2="128.5"/><path d="M245.2,207.41h-2.92v7.92h-.72v-7.92h-2.92v-.61h6.56Z"/><path d="M248,211.57l1.71-2.57h.83l-2.15,3.11,2.24,3.23h-.83l-1.8-2.68-1.8,2.68h-.83l2.24-3.23L245.42,209h.83Z"/><path d="M259.58,211.34h-4v4h-.72V206.8h5.29v.61H255.6v3.32h4Z"/><path d="M263.8,215.45a2.75,2.75,0,0,1-1.46-.4,2.72,2.72,0,0,1-1-1.11,3.46,3.46,0,0,1-.36-1.6v-.25a3.73,3.73,0,0,1,.35-1.65,2.82,2.82,0,0,1,1-1.15,2.44,2.44,0,0,1,1.37-.42,2.29,2.29,0,0,1,1.83.79,3.2,3.2,0,0,1,.68,2.15v.39h-4.52v.13a2.65,2.65,0,0,0,.62,1.79,2,2,0,0,0,1.56.72,2.28,2.28,0,0,0,1-.21,2.2,2.2,0,0,0,.78-.66l.44.33A2.56,2.56,0,0,1,263.8,215.45Zm-.13-6a1.75,1.75,0,0,0-1.33.58,2.68,2.68,0,0,0-.66,1.56h3.8v-.08A2.33,2.33,0,0,0,265,210,1.62,1.62,0,0,0,263.67,209.47Z"/><path d="M270,215.45a2.75,2.75,0,0,1-1.46-.4,2.72,2.72,0,0,1-1-1.11,3.46,3.46,0,0,1-.36-1.6v-.25a3.73,3.73,0,0,1,.35-1.65,2.82,2.82,0,0,1,1-1.15,2.44,2.44,0,0,1,1.37-.42,2.29,2.29,0,0,1,1.83.79,3.2,3.2,0,0,1,.68,2.15v.39h-4.52v.13a2.65,2.65,0,0,0,.62,1.79,2,2,0,0,0,1.56.72,2.28,2.28,0,0,0,1-.21,2.2,2.2,0,0,0,.78-.66l.44.33A2.56,2.56,0,0,1,270,215.45Zm-.13-6a1.75,1.75,0,0,0-1.33.58,2.68,2.68,0,0,0-.66,1.56h3.8v-.08a2.33,2.33,0,0,0-.52-1.49A1.62,1.62,0,0,0,269.87,209.47Z"/><path d="M279.44,211H282v.66h-2.6v2.82h-.71v-2.82h-2.54V211h2.54v-2.73h.71Z"/><path d="M291.34,213.24a1.38,1.38,0,0,0-.5-1.12,5.26,5.26,0,0,0-1.82-.79,6.39,6.39,0,0,1-1.93-.81,2,2,0,0,1-.06-3.22,3.31,3.31,0,0,1,2.06-.61,3.42,3.42,0,0,1,1.52.33,2.49,2.49,0,0,1,1,.91,2.4,2.4,0,0,1,.37,1.31h-.73a1.79,1.79,0,0,0-.6-1.41,2.33,2.33,0,0,0-1.61-.53,2.53,2.53,0,0,0-1.56.44,1.36,1.36,0,0,0-.58,1.14,1.29,1.29,0,0,0,.52,1.06,4.84,4.84,0,0,0,1.67.72,7.86,7.86,0,0,1,1.74.65,2.48,2.48,0,0,1,.89.81,2,2,0,0,1,.3,1.11,1.93,1.93,0,0,1-.81,1.62,3.43,3.43,0,0,1-2.12.61,4.16,4.16,0,0,1-1.66-.32,2.53,2.53,0,0,1-1.14-.9,2.33,2.33,0,0,1-.39-1.33h.72a1.7,1.7,0,0,0,.67,1.42,2.85,2.85,0,0,0,1.79.52,2.66,2.66,0,0,0,1.6-.44A1.37,1.37,0,0,0,291.34,213.24Z"/><path d="M295,213.88l.11.54.14-.57,1.52-4.85h.6l1.51,4.81.16.67.13-.62,1.3-4.86h.73l-1.85,6.34h-.6l-1.63-5L297,210l-.08.35-1.6,5h-.6L292.91,209h.72Z"/><path d="M306.51,215.33a3.32,3.32,0,0,1-.13-.88,2.44,2.44,0,0,1-.94.74,2.88,2.88,0,0,1-1.21.26,2.13,2.13,0,0,1-1.48-.51,1.66,1.66,0,0,1-.57-1.29,1.7,1.7,0,0,1,.77-1.46,3.7,3.7,0,0,1,2.15-.54h1.27v-.72a1.39,1.39,0,0,0-.42-1.07,1.73,1.73,0,0,0-1.22-.39,1.91,1.91,0,0,0-1.21.38,1.11,1.11,0,0,0-.48.9h-.7a1.63,1.63,0,0,1,.7-1.31,2.71,2.71,0,0,1,1.73-.55,2.47,2.47,0,0,1,1.67.53,1.9,1.9,0,0,1,.63,1.48v3a3.72,3.72,0,0,0,.19,1.38v.07Zm-2.2-.5a2.35,2.35,0,0,0,1.26-.34,2,2,0,0,0,.81-.91v-1.39h-1.25a3.14,3.14,0,0,0-1.64.38,1.15,1.15,0,0,0-.59,1,1.13,1.13,0,0,0,.4.88A1.49,1.49,0,0,0,304.3,214.83Z"/><path d="M314,212.23a3.81,3.81,0,0,1-.66,2.35,2.09,2.09,0,0,1-1.76.87,2.35,2.35,0,0,1-2-.91v3.23h-.7V209h.65l0,.9a2.25,2.25,0,0,1,2-1,2.11,2.11,0,0,1,1.78.86,3.9,3.9,0,0,1,.65,2.39Zm-.7-.12a3.26,3.26,0,0,0-.5-1.92,1.61,1.61,0,0,0-1.39-.7,1.85,1.85,0,0,0-1.82,1.21v3a1.86,1.86,0,0,0,.72.83,2.08,2.08,0,0,0,1.11.29,1.59,1.59,0,0,0,1.38-.71A3.55,3.55,0,0,0,313.33,212.11Z"/><path d="M319,215.33v-5.77h-1V209h1v-.77a2.09,2.09,0,0,1,.5-1.49,1.81,1.81,0,0,1,1.38-.52,2.71,2.71,0,0,1,.74.1l-.05.58a2.73,2.73,0,0,0-.64-.07,1.15,1.15,0,0,0-.9.36,1.49,1.49,0,0,0-.32,1V209h1.51v.57h-1.51v5.77Z"/><path d="M324.79,215.45a2.75,2.75,0,0,1-1.46-.4,2.72,2.72,0,0,1-1-1.11,3.46,3.46,0,0,1-.36-1.6v-.25a3.73,3.73,0,0,1,.35-1.65,2.82,2.82,0,0,1,1-1.15,2.44,2.44,0,0,1,1.37-.42,2.29,2.29,0,0,1,1.83.79,3.2,3.2,0,0,1,.68,2.15v.39h-4.52v.13a2.65,2.65,0,0,0,.62,1.79,2,2,0,0,0,1.56.72,2.28,2.28,0,0,0,1-.21,2.2,2.2,0,0,0,.78-.66l.44.33A2.56,2.56,0,0,1,324.79,215.45Zm-.13-6a1.75,1.75,0,0,0-1.33.58,2.68,2.68,0,0,0-.66,1.56h3.8v-.08a2.33,2.33,0,0,0-.52-1.49A1.62,1.62,0,0,0,324.66,209.47Z"/><path d="M331,215.45a2.75,2.75,0,0,1-1.46-.4,2.72,2.72,0,0,1-1-1.11,3.46,3.46,0,0,1-.36-1.6v-.25a3.73,3.73,0,0,1,.35-1.65,2.82,2.82,0,0,1,1-1.15,2.44,2.44,0,0,1,1.37-.42,2.29,2.29,0,0,1,1.83.79,3.2,3.2,0,0,1,.68,2.15v.39h-4.52v.13a2.65,2.65,0,0,0,.62,1.79,2,2,0,0,0,1.56.72,2.28,2.28,0,0,0,1-.21,2.2,2.2,0,0,0,.78-.66l.44.33A2.56,2.56,0,0,1,331,215.45Zm-.13-6a1.75,1.75,0,0,0-1.33.58,2.68,2.68,0,0,0-.66,1.56h3.8v-.08a2.33,2.33,0,0,0-.52-1.49A1.62,1.62,0,0,0,330.86,209.47Z"/><path d="M55.66,80.11V77.19H47.74v-.72h7.92V73.55h.61v6.56Z"/><path d="M51.51,82.87l2.57,1.71v.83L51,83.26,47.74,85.5v-.83l2.68-1.8-2.68-1.8v-.83L51,82.48l3.11-2.15v.83Z"/><path d="M51.73,94.49v-4h-4v-.72h8.53v5.29h-.61V90.51H52.34v4Z"/><path d="M47.62,98.71a2.75,2.75,0,0,1,.4-1.46,2.72,2.72,0,0,1,1.11-1,3.46,3.46,0,0,1,1.6-.36H51a3.73,3.73,0,0,1,1.65.35,2.82,2.82,0,0,1,1.15,1,2.44,2.44,0,0,1,.42,1.37,2.29,2.29,0,0,1-.79,1.83,3.2,3.2,0,0,1-2.15.68h-.39V96.57h-.13a2.65,2.65,0,0,0-1.8.62,2,2,0,0,0-.72,1.56,2.28,2.28,0,0,0,.21,1,2.2,2.2,0,0,0,.66.78l-.33.44A2.56,2.56,0,0,1,47.62,98.71Zm6-.13A1.75,1.75,0,0,0,53,97.25a2.68,2.68,0,0,0-1.56-.66v3.8h.08A2.33,2.33,0,0,0,53,99.87,1.62,1.62,0,0,0,53.6,98.58Z"/><path d="M47.62,104.91a2.75,2.75,0,0,1,.4-1.46,2.72,2.72,0,0,1,1.11-1,3.46,3.46,0,0,1,1.6-.36H51a3.73,3.73,0,0,1,1.65.35,2.82,2.82,0,0,1,1.15,1,2.44,2.44,0,0,1,.42,1.37,2.29,2.29,0,0,1-.79,1.83,3.2,3.2,0,0,1-2.15.68h-.39v-4.52h-.13a2.65,2.65,0,0,0-1.8.62,2,2,0,0,0-.72,1.56,2.28,2.28,0,0,0,.21,1,2.2,2.2,0,0,0,.66.78l-.33.44A2.56,2.56,0,0,1,47.62,104.91Zm6-.13a1.75,1.75,0,0,0-.58-1.33,2.68,2.68,0,0,0-1.56-.66v3.8h.08a2.33,2.33,0,0,0,1.49-.52A1.62,1.62,0,0,0,53.6,104.78Z"/><path d="M340.55,211.68v-2.6h.66v2.6H344v.71h-2.82v2.54h-.66v-2.54h-2.73v-.71Z"/><path d="M342.79,199.78a1.38,1.38,0,0,0-1.12.5,5.26,5.26,0,0,0-.79,1.82,6.39,6.39,0,0,1-.81,1.93,2,2,0,0,1-3.22.06,3.31,3.31,0,0,1-.61-2.06,3.42,3.42,0,0,1,.33-1.52,2.49,2.49,0,0,1,.91-1,2.4,2.4,0,0,1,1.31-.37v.73a1.79,1.79,0,0,0-1.41.6,2.33,2.33,0,0,0-.53,1.61,2.53,2.53,0,0,0,.44,1.56,1.36,1.36,0,0,0,1.14.58,1.29,1.29,0,0,0,1.06-.52,4.84,4.84,0,0,0,.72-1.67,7.86,7.86,0,0,1,.65-1.74,2.48,2.48,0,0,1,.81-.89,2,2,0,0,1,1.11-.3,1.93,1.93,0,0,1,1.62.81A3.43,3.43,0,0,1,345,202a4.16,4.16,0,0,1-.32,1.66,2.53,2.53,0,0,1-.9,1.14,2.33,2.33,0,0,1-1.33.39v-.72a1.7,1.7,0,0,0,1.42-.67,2.85,2.85,0,0,0,.52-1.79,2.66,2.66,0,0,0-.44-1.6A1.37,1.37,0,0,0,342.79,199.78Z"/><path d="M344.89,196.88v.7h-9v-.7Z"/><path d="M336.72,195a.47.47,0,0,1-.33-.13.46.46,0,0,1-.14-.35.47.47,0,0,1,.14-.35.47.47,0,0,1,.33-.13.46.46,0,0,1,.33.13.47.47,0,0,1,.13.35.45.45,0,0,1-.47.48Zm8.17-.83v.7h-6.34v-.7Z"/><path d="M341.78,187.18a3.82,3.82,0,0,1,2.35.66,2.09,2.09,0,0,1,.87,1.76,2.35,2.35,0,0,1-.91,2h3.23v.7h-8.78v-.65l.9,0a2.25,2.25,0,0,1-1-2,2.11,2.11,0,0,1,.86-1.78,3.9,3.9,0,0,1,2.39-.65Zm-.12.7a3.26,3.26,0,0,0-1.92.5,1.61,1.61,0,0,0-.7,1.39,1.85,1.85,0,0,0,1.21,1.82h3a1.86,1.86,0,0,0,.83-.72,2.08,2.08,0,0,0,.29-1.11,1.59,1.59,0,0,0-.71-1.38A3.55,3.55,0,0,0,341.66,187.89Z"/><path d="M341.78,180.53a3.82,3.82,0,0,1,2.35.66,2.09,2.09,0,0,1,.87,1.76,2.35,2.35,0,0,1-.91,2h3.23v.7h-8.78V185l.9,0a2.25,2.25,0,0,1-1-2,2.11,2.11,0,0,1,.86-1.78,3.9,3.9,0,0,1,2.39-.65Zm-.12.7a3.26,3.26,0,0,0-1.92.5,1.61,1.61,0,0,0-.7,1.39,1.85,1.85,0,0,0,1.21,1.82h3a1.86,1.86,0,0,0,.83-.72,2.08,2.08,0,0,0,.29-1.11,1.59,1.59,0,0,0-.71-1.38A3.55,3.55,0,0,0,341.66,181.24Z"/><path d="M344.89,175a3.32,3.32,0,0,1-.88.13,2.45,2.45,0,0,1,.74.94,2.88,2.88,0,0,1,.26,1.21,2.13,2.13,0,0,1-.51,1.48,1.66,1.66,0,0,1-1.29.57,1.7,1.7,0,0,1-1.46-.77,3.7,3.7,0,0,1-.54-2.15v-1.27h-.72a1.39,1.39,0,0,0-1.07.42,1.73,1.73,0,0,0-.39,1.22,1.91,1.91,0,0,0,.38,1.21,1.11,1.11,0,0,0,.9.48v.7a1.63,1.63,0,0,1-1.31-.7,2.71,2.71,0,0,1-.55-1.73,2.47,2.47,0,0,1,.53-1.67,1.9,1.9,0,0,1,1.48-.63h3a3.72,3.72,0,0,0,1.38-.19h.07Zm-.5,2.2a2.35,2.35,0,0,0-.34-1.26,2,2,0,0,0-.91-.81h-1.39v1.25a3.14,3.14,0,0,0,.38,1.64,1.15,1.15,0,0,0,1,.59,1.13,1.13,0,0,0,.88-.4A1.49,1.49,0,0,0,344.38,177.18Z"/><path d="M341.66,172.83a3.82,3.82,0,0,1-2.36-.66,2.13,2.13,0,0,1-.87-1.79,2.2,2.2,0,0,1,1-2l-.91,0v-.66h6.21a2.69,2.69,0,0,1,1.94.69,2.45,2.45,0,0,1,.71,1.86,2.82,2.82,0,0,1-.3,1.26,2.45,2.45,0,0,1-.79.95l-.42-.39a2.22,2.22,0,0,0,.91-1.77,1.8,1.8,0,0,0-.52-1.37,2.07,2.07,0,0,0-1.44-.51h-.8a2.27,2.27,0,0,1,.94,2,2.11,2.11,0,0,1-.88,1.77,3.83,3.83,0,0,1-2.37.67Zm.12-.71a3.31,3.31,0,0,0,1.91-.49,1.57,1.57,0,0,0,.7-1.37,1.87,1.87,0,0,0-1.16-1.83h-2.95a2,2,0,0,0-.93.71,1.91,1.91,0,0,0-.32,1.11,1.59,1.59,0,0,0,.69,1.38A3.53,3.53,0,0,0,341.78,172.13Z"/><path d="M345,163.44a2.75,2.75,0,0,1-.4,1.46,2.72,2.72,0,0,1-1.11,1,3.46,3.46,0,0,1-1.6.36h-.25a3.73,3.73,0,0,1-1.65-.35,2.82,2.82,0,0,1-1.15-1,2.44,2.44,0,0,1-.42-1.37,2.29,2.29,0,0,1,.79-1.83,3.2,3.2,0,0,1,2.15-.68h.39v4.52h.13a2.65,2.65,0,0,0,1.8-.62,2,2,0,0,0,.72-1.56,2.28,2.28,0,0,0-.21-1,2.2,2.2,0,0,0-.66-.78l.33-.44A2.56,2.56,0,0,1,345,163.44Zm-6,.13a1.75,1.75,0,0,0,.58,1.33,2.68,2.68,0,0,0,1.56.66v-3.8h-.08a2.33,2.33,0,0,0-1.49.52A1.62,1.62,0,0,0,339,163.57Z"/><path d="M300.87,15.74h-2.92v7.92h-.72V15.74H294.3v-.61h6.56Z"/><path d="M303.62,19.9l1.71-2.57h.83L304,20.44l2.24,3.23h-.83L303.63,21l-1.8,2.68H301l2.24-3.23-2.15-3.11h.83Z"/><path d="M315.25,19.68h-4v4h-.72V15.14h5.29v.61h-4.56v3.32h4Z"/><path d="M319.46,23.78a2.75,2.75,0,0,1-1.46-.4,2.72,2.72,0,0,1-1-1.11,3.46,3.46,0,0,1-.36-1.6v-.25a3.73,3.73,0,0,1,.35-1.65,2.82,2.82,0,0,1,1-1.15,2.44,2.44,0,0,1,1.37-.42,2.29,2.29,0,0,1,1.83.79,3.2,3.2,0,0,1,.68,2.15v.39h-4.52v.13a2.65,2.65,0,0,0,.62,1.8,2,2,0,0,0,1.56.72,2.28,2.28,0,0,0,1-.21,2.2,2.2,0,0,0,.78-.66l.44.33A2.56,2.56,0,0,1,319.46,23.78Zm-.13-6a1.75,1.75,0,0,0-1.33.58,2.68,2.68,0,0,0-.66,1.56h3.8v-.08a2.33,2.33,0,0,0-.52-1.49A1.62,1.62,0,0,0,319.34,17.81Z"/><path d="M325.66,23.78a2.75,2.75,0,0,1-1.46-.4,2.72,2.72,0,0,1-1-1.11,3.46,3.46,0,0,1-.36-1.6v-.25a3.73,3.73,0,0,1,.35-1.65,2.82,2.82,0,0,1,1-1.15,2.44,2.44,0,0,1,1.37-.42,2.29,2.29,0,0,1,1.83.79,3.2,3.2,0,0,1,.68,2.15v.39h-4.52v.13a2.65,2.65,0,0,0,.62,1.8,2,2,0,0,0,1.56.72,2.28,2.28,0,0,0,1-.21,2.2,2.2,0,0,0,.78-.66l.44.33A2.56,2.56,0,0,1,325.66,23.78Zm-.13-6a1.75,1.75,0,0,0-1.33.58,2.68,2.68,0,0,0-.66,1.56h3.8v-.08a2.33,2.33,0,0,0-.52-1.49A1.62,1.62,0,0,0,325.54,17.81Z"/><path d="M335.1,19.33h2.6V20h-2.6v2.82h-.71V20h-2.54v-.66h2.54V16.6h.71Z"/><path d="M333.18,33.15a1.38,1.38,0,0,0,1.12-.5,5.26,5.26,0,0,0,.79-1.82,6.39,6.39,0,0,1,.81-1.93,2,2,0,0,1,3.22-.06,3.31,3.31,0,0,1,.61,2.06,3.42,3.42,0,0,1-.33,1.52,2.49,2.49,0,0,1-.91,1,2.4,2.4,0,0,1-1.31.37v-.73a1.79,1.79,0,0,0,1.41-.6,2.33,2.33,0,0,0,.53-1.61,2.53,2.53,0,0,0-.44-1.56,1.36,1.36,0,0,0-1.14-.58,1.29,1.29,0,0,0-1.06.52,4.84,4.84,0,0,0-.72,1.67,7.86,7.86,0,0,1-.65,1.74,2.48,2.48,0,0,1-.81.89,2,2,0,0,1-1.11.3,1.93,1.93,0,0,1-1.62-.81,3.43,3.43,0,0,1-.61-2.12,4.16,4.16,0,0,1,.32-1.66,2.53,2.53,0,0,1,.9-1.14,2.33,2.33,0,0,1,1.33-.39v.72a1.7,1.7,0,0,0-1.42.67,2.85,2.85,0,0,0-.52,1.79,2.66,2.66,0,0,0,.44,1.6A1.37,1.37,0,0,0,333.18,33.15Z"/><path d="M332.54,36.78l-.54.11.57.14,4.85,1.52v.6l-4.81,1.51-.67.16.62.13,4.86,1.3V43l-6.34-1.85v-.6l5-1.63.35-.08-.35-.08-5-1.6v-.6l6.34-1.84v.72Z"/><path d="M331.08,48.31a3.32,3.32,0,0,1,.88-.13,2.45,2.45,0,0,1-.74-.94A2.88,2.88,0,0,1,331,46a2.13,2.13,0,0,1,.51-1.48,1.66,1.66,0,0,1,1.29-.57,1.7,1.7,0,0,1,1.46.77,3.7,3.7,0,0,1,.54,2.15v1.27h.72a1.39,1.39,0,0,0,1.07-.42,1.73,1.73,0,0,0,.39-1.22,1.91,1.91,0,0,0-.37-1.21,1.11,1.11,0,0,0-.9-.48v-.7a1.63,1.63,0,0,1,1.31.7,2.71,2.71,0,0,1,.55,1.73,2.47,2.47,0,0,1-.53,1.67,1.9,1.9,0,0,1-1.48.63h-3a3.72,3.72,0,0,0-1.38.19h-.07Zm.5-2.2a2.35,2.35,0,0,0,.34,1.26,2,2,0,0,0,.91.81h1.39V46.91a3.14,3.14,0,0,0-.38-1.64,1.15,1.15,0,0,0-1-.59,1.13,1.13,0,0,0-.88.4A1.49,1.49,0,0,0,331.58,46.11Z"/><path d="M334.19,55.83a3.82,3.82,0,0,1-2.35-.66,2.09,2.09,0,0,1-.87-1.76,2.35,2.35,0,0,1,.91-2h-3.23v-.7h8.78v.65l-.9,0a2.25,2.25,0,0,1,1,2,2.11,2.11,0,0,1-.86,1.78,3.9,3.9,0,0,1-2.39.65Zm.12-.7a3.26,3.26,0,0,0,1.92-.5,1.61,1.61,0,0,0,.7-1.39,1.85,1.85,0,0,0-1.21-1.82h-3a1.86,1.86,0,0,0-.83.72,2.08,2.08,0,0,0-.29,1.11,1.59,1.59,0,0,0,.71,1.38A3.55,3.55,0,0,0,334.31,55.13Z"/><path d="M335.07,65.17v-4h-4v-.72h8.53v5.29H339V61.19h-3.32v4Z"/><path d="M331,69.39a2.75,2.75,0,0,1,.4-1.46,2.72,2.72,0,0,1,1.11-1,3.46,3.46,0,0,1,1.6-.36h.25a3.73,3.73,0,0,1,1.65.35,2.82,2.82,0,0,1,1.15,1,2.44,2.44,0,0,1,.42,1.37,2.29,2.29,0,0,1-.79,1.83,3.2,3.2,0,0,1-2.15.68h-.39V67.24h-.13a2.65,2.65,0,0,0-1.8.62,2,2,0,0,0-.72,1.56,2.28,2.28,0,0,0,.21,1,2.2,2.2,0,0,0,.66.78l-.33.44A2.56,2.56,0,0,1,331,69.39Zm6-.13a1.75,1.75,0,0,0-.58-1.33,2.68,2.68,0,0,0-1.56-.66v3.8h.08a2.33,2.33,0,0,0,1.49-.52A1.62,1.62,0,0,0,336.94,69.26Z"/><path d="M331,75.58a2.75,2.75,0,0,1,.4-1.46,2.72,2.72,0,0,1,1.11-1,3.46,3.46,0,0,1,1.6-.36h.25a3.73,3.73,0,0,1,1.65.35,2.82,2.82,0,0,1,1.15,1,2.44,2.44,0,0,1,.42,1.37,2.29,2.29,0,0,1-.79,1.83,3.2,3.2,0,0,1-2.15.68h-.39V73.44h-.13a2.65,2.65,0,0,0-1.8.62,2,2,0,0,0-.72,1.56,2.28,2.28,0,0,0,.21,1,2.2,2.2,0,0,0,.66.78l-.33.44A2.56,2.56,0,0,1,331,75.58Zm6-.13a1.75,1.75,0,0,0-.58-1.33,2.68,2.68,0,0,0-1.56-.66v3.8h.08a2.33,2.33,0,0,0,1.49-.52A1.62,1.62,0,0,0,336.94,75.46Z"/><path d="M318.54,35.8v2.6h-.66V35.8h-2.82v-.71h2.82V32.55h.66v2.54h2.73v.71Z"/><path d="M316.3,47.71a1.38,1.38,0,0,0,1.12-.5,5.26,5.26,0,0,0,.79-1.82,6.39,6.39,0,0,1,.81-1.93,2,2,0,0,1,3.22-.06,3.31,3.31,0,0,1,.61,2.06,3.42,3.42,0,0,1-.33,1.52,2.49,2.49,0,0,1-.91,1,2.4,2.4,0,0,1-1.31.37v-.73a1.79,1.79,0,0,0,1.41-.6,2.33,2.33,0,0,0,.53-1.61,2.53,2.53,0,0,0-.44-1.56,1.36,1.36,0,0,0-1.14-.58,1.29,1.29,0,0,0-1.06.52,4.84,4.84,0,0,0-.72,1.67,7.86,7.86,0,0,1-.65,1.74,2.48,2.48,0,0,1-.81.89,2,2,0,0,1-1.11.3,1.93,1.93,0,0,1-1.62-.81,3.43,3.43,0,0,1-.61-2.12,4.16,4.16,0,0,1,.32-1.66,2.53,2.53,0,0,1,.9-1.14,2.33,2.33,0,0,1,1.33-.39V43a1.7,1.7,0,0,0-1.42.67,2.85,2.85,0,0,0-.52,1.79,2.66,2.66,0,0,0,.44,1.6A1.37,1.37,0,0,0,316.3,47.71Z"/><path d="M314.21,50.61v-.7h9v.7Z"/><path d="M314.21,53.3v-.7h6.34v.7Zm8.17-.83a.47.47,0,0,1,.33.13.46.46,0,0,1,.14.35.47.47,0,0,1-.14.35.47.47,0,0,1-.33.13.46.46,0,0,1-.33-.13.47.47,0,0,1-.13-.35.45.45,0,0,1,.47-.48Z"/><path d="M317.31,60.3a3.82,3.82,0,0,1-2.35-.66,2.09,2.09,0,0,1-.87-1.76,2.35,2.35,0,0,1,.91-2h-3.23v-.7h8.78v.65l-.9,0a2.25,2.25,0,0,1,1,2,2.11,2.11,0,0,1-.86,1.78,3.9,3.9,0,0,1-2.39.65Zm.12-.7a3.26,3.26,0,0,0,1.92-.5,1.61,1.61,0,0,0,.7-1.39,1.85,1.85,0,0,0-1.21-1.82h-3a1.86,1.86,0,0,0-.83.72,2.08,2.08,0,0,0-.29,1.11,1.59,1.59,0,0,0,.71,1.38A3.55,3.55,0,0,0,317.44,59.6Z"/><path d="M317.31,67A3.82,3.82,0,0,1,315,66.3a2.09,2.09,0,0,1-.87-1.76,2.35,2.35,0,0,1,.91-2h-3.23v-.7h8.78v.65l-.9,0a2.25,2.25,0,0,1,1,2,2.11,2.11,0,0,1-.86,1.78,3.9,3.9,0,0,1-2.39.65Zm.12-.7a3.26,3.26,0,0,0,1.92-.5,1.61,1.61,0,0,0,.7-1.39,1.85,1.85,0,0,0-1.21-1.82h-3a1.86,1.86,0,0,0-.83.72,2.08,2.08,0,0,0-.29,1.11,1.59,1.59,0,0,0,.71,1.38A3.55,3.55,0,0,0,317.44,66.25Z"/><path d="M314.21,72.51a3.32,3.32,0,0,1,.88-.13,2.45,2.45,0,0,1-.74-.94,2.88,2.88,0,0,1-.26-1.21,2.13,2.13,0,0,1,.51-1.48,1.66,1.66,0,0,1,1.29-.57,1.7,1.7,0,0,1,1.46.77,3.7,3.7,0,0,1,.54,2.15v1.27h.72a1.39,1.39,0,0,0,1.07-.42,1.73,1.73,0,0,0,.39-1.22,1.91,1.91,0,0,0-.37-1.21,1.11,1.11,0,0,0-.9-.48v-.7a1.63,1.63,0,0,1,1.31.7,2.71,2.71,0,0,1,.55,1.73,2.47,2.47,0,0,1-.53,1.67,1.9,1.9,0,0,1-1.48.63h-3a3.72,3.72,0,0,0-1.38.19h-.07Zm.5-2.2a2.35,2.35,0,0,0,.34,1.26,2,2,0,0,0,.91.81h1.39V71.11a3.14,3.14,0,0,0-.38-1.64,1.15,1.15,0,0,0-1-.59,1.13,1.13,0,0,0-.88.4A1.49,1.49,0,0,0,314.71,70.3Z"/><path d="M317.44,74.65a3.82,3.82,0,0,1,2.36.66,2.13,2.13,0,0,1,.87,1.79,2.2,2.2,0,0,1-1,2l.91,0v.66h-6.21a2.69,2.69,0,0,1-1.94-.69,2.45,2.45,0,0,1-.71-1.86A2.82,2.82,0,0,1,312,76a2.45,2.45,0,0,1,.79-.95l.42.39a2.22,2.22,0,0,0-.91,1.77,1.8,1.8,0,0,0,.52,1.37,2.07,2.07,0,0,0,1.44.51h.8a2.27,2.27,0,0,1-.94-2,2.11,2.11,0,0,1,.88-1.77,3.83,3.83,0,0,1,2.37-.67Zm-.12.71a3.31,3.31,0,0,0-1.91.49,1.57,1.57,0,0,0-.7,1.37,1.87,1.87,0,0,0,1.16,1.83h2.95a2,2,0,0,0,.93-.71,1.91,1.91,0,0,0,.32-1.11,1.59,1.59,0,0,0-.69-1.38A3.53,3.53,0,0,0,317.31,75.36Z"/><path d="M314.09,84a2.75,2.75,0,0,1,.4-1.46,2.72,2.72,0,0,1,1.11-1,3.46,3.46,0,0,1,1.6-.36h.25a3.73,3.73,0,0,1,1.65.35,2.82,2.82,0,0,1,1.15,1,2.44,2.44,0,0,1,.42,1.37,2.29,2.29,0,0,1-.79,1.83,3.2,3.2,0,0,1-2.15.68h-.39V81.9h-.13a2.65,2.65,0,0,0-1.8.62,2,2,0,0,0-.72,1.56,2.28,2.28,0,0,0,.21,1,2.2,2.2,0,0,0,.66.78l-.33.44A2.56,2.56,0,0,1,314.09,84Zm6-.13a1.75,1.75,0,0,0-.58-1.33,2.68,2.68,0,0,0-1.56-.66v3.8H318a2.33,2.33,0,0,0,1.49-.52A1.62,1.62,0,0,0,320.07,83.92Z"/><path d="M119.53,16.41h-2.92v7.92h-.72V16.41H113V15.8h6.56Z"/><path d="M122.29,20.57,124,18h.83l-2.15,3.11,2.24,3.23h-.83l-1.8-2.68-1.8,2.68h-.83l2.24-3.23L119.75,18h.83Z"/><path d="M133.91,20.34h-4v4h-.72V15.8h5.29v.61h-4.56v3.32h4Z"/><path d="M138.13,24.45a2.75,2.75,0,0,1-1.46-.4,2.72,2.72,0,0,1-1-1.11,3.46,3.46,0,0,1-.36-1.6v-.25a3.73,3.73,0,0,1,.35-1.65,2.82,2.82,0,0,1,1-1.15,2.44,2.44,0,0,1,1.37-.42,2.29,2.29,0,0,1,1.83.79,3.2,3.2,0,0,1,.68,2.15v.39H136v.13a2.65,2.65,0,0,0,.62,1.8,2,2,0,0,0,1.56.72,2.28,2.28,0,0,0,1-.21,2.2,2.2,0,0,0,.78-.66l.44.33A2.56,2.56,0,0,1,138.13,24.45Zm-.13-6a1.75,1.75,0,0,0-1.33.58,2.68,2.68,0,0,0-.66,1.56h3.8v-.08a2.33,2.33,0,0,0-.52-1.49A1.62,1.62,0,0,0,138,18.47Z"/><path d="M144.33,24.45a2.75,2.75,0,0,1-1.46-.4,2.72,2.72,0,0,1-1-1.11,3.46,3.46,0,0,1-.36-1.6v-.25a3.73,3.73,0,0,1,.35-1.65,2.82,2.82,0,0,1,1-1.15,2.44,2.44,0,0,1,1.37-.42,2.29,2.29,0,0,1,1.83.79,3.2,3.2,0,0,1,.68,2.15v.39h-4.52v.13a2.65,2.65,0,0,0,.62,1.8,2,2,0,0,0,1.56.72,2.28,2.28,0,0,0,1-.21,2.2,2.2,0,0,0,.78-.66l.44.33A2.56,2.56,0,0,1,144.33,24.45Zm-.13-6a1.75,1.75,0,0,0-1.33.58,2.68,2.68,0,0,0-.66,1.56H146v-.08a2.33,2.33,0,0,0-.52-1.49A1.62,1.62,0,0,0,144.2,18.47Z"/></g></g></svg>