<svg xmlns="http://www.w3.org/2000/svg" xmlns:xlink="http://www.w3.org/1999/xlink" viewBox="0 0 742.66 267.89"><defs><style>.cls-1,.cls-2{fill:none;stroke-miterlimit:10;}.cls-1{stroke-width:4px;stroke:url(#linear-gradient);}.cls-2{stroke-width:3px;stroke:url(#linear-gradient-2);}</style><linearGradient id="linear-gradient" x1="107.66" y1="160.95" x2="742.66" y2="160.95" gradientUnits="userSpaceOnUse"><stop offset="0" stop-color="#ff7bac"/><stop offset="0.22" stop-color="#ff7bac" stop-opacity="0.76"/><stop offset="0.6" stop-color="#ff7bac" stop-opacity="0.36"/><stop offset="0.87" stop-color="#ff7bac" stop-opacity="0.1"/><stop offset="1" stop-color="#ff7bac" stop-opacity="0"/></linearGradient><linearGradient id="linear-gradient-2" y1="119.96" x2="611.75" y2="119.96" gradientUnits="userSpaceOnUse"><stop offset="0" stop-color="aqua" stop-opacity="0"/><stop offset="0.13" stop-color="aqua" stop-opacity="0.1"/><stop offset="0.4" stop-color="aqua" stop-opacity="0.36"/><stop offset="0.78" stop-color="aqua" stop-opacity="0.76"/><stop offset="1" stop-color="aqua"/></linearGradient></defs><title>Asset 1</title><g id="Layer_2" data-name="Layer 2"><g id="Layer_1-2" data-name="Layer 1"><path class="cls-1" d="M109.66,267.89C109.66,150.77,392.78,56,742.66,56"/><path class="cls-2" d="M610.25,0C610.25,131.79,337.31,238.43,0,238.43"/></g><g id="Layer_2-2" data-name="Layer 2"><path d="M102.39,151.81A27.66,27.66,0,0,1,100,163.57a18.17,18.17,0,0,1-6.77,7.91,18.46,18.46,0,0,1-10.12,2.79,17.64,17.64,0,0,1-14-6.15q-5.34-6.15-5.34-16.59v-7.38a27.69,27.69,0,0,1,2.37-11.74,18.11,18.11,0,0,1,6.79-7.93,19.74,19.74,0,0,1,20.25,0,18.22,18.22,0,0,1,6.8,7.95,27.54,27.54,0,0,1,2.39,11.72Zm-1.9-7.73q0-9.28-4.71-14.89t-12.73-5.61a15.69,15.69,0,0,0-12.62,5.57q-4.71,5.57-4.71,15.17v7.49a25.94,25.94,0,0,0,2.13,10.81,16.36,16.36,0,0,0,6.06,7.22,16.66,16.66,0,0,0,9.21,2.53q8,0,12.69-5.59t4.68-15.26Z"/><path d="M142.18,154.9q0,8.89-3.83,14.13a12.25,12.25,0,0,1-10.44,5.24,16.42,16.42,0,0,1-7.7-1.76,13.62,13.62,0,0,1-3.64-2.72,1,1,0,0,0-1.63.68v16.77a1,1,0,0,1-.95.95h0a1,1,0,0,1-.95-.95V136.48a1,1,0,0,1,.95-.95h0a1,1,0,0,1,.95.95v2.72a1,1,0,0,0,1.67.64,13.47,13.47,0,0,1,3.64-3.08,14.88,14.88,0,0,1,7.59-1.93,12.42,12.42,0,0,1,10.51,5.12q3.83,5.12,3.83,14.36Zm-1.93-.74q0-8.19-3.25-12.81a10.52,10.52,0,0,0-9.12-4.62,13.24,13.24,0,0,0-8.12,2.48,13.66,13.66,0,0,0-4.77,7,1,1,0,0,0-.05.32v17.44a1,1,0,0,0,.07.37,12,12,0,0,0,4.77,5.92,14.78,14.78,0,0,0,8.17,2.16,10.43,10.43,0,0,0,9.07-4.64Q140.25,163.09,140.25,154.17Z"/><path d="M156.77,126.22v8.37a1,1,0,0,0,.95.95h6.75a1,1,0,0,1,.95.95h0a1,1,0,0,1-.95.95h-6.75a1,1,0,0,0-.95.95v26.08q0,4,1.32,6a5,5,0,0,0,4.41,1.94,24.38,24.38,0,0,0,2.88-.2,1,1,0,0,1,1,.78v0a1,1,0,0,1-.78,1.1,19.24,19.24,0,0,1-3,.19q-4.15,0-5.94-2.3t-1.83-7.27V138.38a1,1,0,0,0-.95-.95h-5.13a1,1,0,0,1-.95-.95h0a1,1,0,0,1,.95-.95h5.13a1,1,0,0,0,.95-.95v-8.37a1,1,0,0,1,.95-.95h0A1,1,0,0,1,156.77,126.22Z"/><path d="M174.77,123.65a1.92,1.92,0,0,1,.56-1.39,1.84,1.84,0,0,1,1.37-.58,2,2,0,0,1,2,2,1.84,1.84,0,0,1-.58,1.37,1.92,1.92,0,0,1-1.39.56,1.92,1.92,0,0,1-1.93-1.93Zm1.93,49.92h0a1,1,0,0,1-.95-.95V136.48a1,1,0,0,1,.95-.95h0a1,1,0,0,1,.95.95v36.14A1,1,0,0,1,176.71,173.57Z"/><path d="M216.4,173.57h0a1,1,0,0,1-.95-.95V148q0-5.73-2.51-8.52T205,136.73a12.11,12.11,0,0,0-10.23,5.51,18.46,18.46,0,0,0-3.11,7.2,1.08,1.08,0,0,0,0,.21v23a1,1,0,0,1-.95.95h0a1,1,0,0,1-.95-.95V136.48a1,1,0,0,1,.95-.95h0a1,1,0,0,1,.95.95v4.27a.94.94,0,0,0,1.73.52,14.88,14.88,0,0,1,3.79-3.91,14.57,14.57,0,0,1,15.77-.42,9.25,9.25,0,0,1,3.36,4.61.94.94,0,0,0,1.69.18,14,14,0,0,1,4.42-4.46,15.39,15.39,0,0,1,8.51-2.44q6.15,0,9.16,3.48t3,10.44v23.87a1,1,0,0,1-.95.95h0a1,1,0,0,1-.95-.95V148.92q0-6.25-2.51-9.25t-7.89-2.93a13.24,13.24,0,0,0-11,5.51,11.68,11.68,0,0,0-2.53,6v24.34A1,1,0,0,1,216.4,173.57Z"/><path d="M254.16,123.65a1.92,1.92,0,0,1,.56-1.39,1.84,1.84,0,0,1,1.37-.58,2,2,0,0,1,2,2,1.84,1.84,0,0,1-.58,1.37,1.92,1.92,0,0,1-1.39.56,1.92,1.92,0,0,1-1.93-1.93Zm1.93,49.92h0a1,1,0,0,1-.95-.95V136.48a1,1,0,0,1,.95-.95h0a1,1,0,0,1,.95.95v36.14A1,1,0,0,1,256.09,173.57Z"/><path d="M293,164.25q0-6.93-11.81-9.42-7.1-1.51-9.88-3.88a8.12,8.12,0,0,1-2.78-6.52,8.33,8.33,0,0,1,3.53-6.89,14.7,14.7,0,0,1,9.19-2.71q6.15,0,9.88,2.94a9.4,9.4,0,0,1,3.68,6.86,1,1,0,0,1-1,1.07h0a1,1,0,0,1-1-.84,7.91,7.91,0,0,0-3.19-5.55,13.18,13.18,0,0,0-8.44-2.57,12.93,12.93,0,0,0-7.91,2.18,7,7,0,0,0-1.83,9.47A9.4,9.4,0,0,0,275,151a36.39,36.39,0,0,0,7.17,2.27,30.62,30.62,0,0,1,7.45,2.57,10.08,10.08,0,0,1,4,3.5,9.33,9.33,0,0,1,1.23,4.94,8.59,8.59,0,0,1-3.69,7.24q-3.69,2.74-9.67,2.74-6.4,0-10.32-2.9a9,9,0,0,1-3.86-6.39,1,1,0,0,1,1-1.08h0a1,1,0,0,1,1,.79,7.78,7.78,0,0,0,3.45,5.45q3.25,2.23,8.81,2.23a13.5,13.5,0,0,0,8.28-2.37A7,7,0,0,0,293,164.25Z"/><path d="M319,174.27a15.3,15.3,0,0,1-8.46-2.48,17,17,0,0,1-6-6.8,21,21,0,0,1-2.18-9.6v-1.58a22.05,22.05,0,0,1,2.11-9.67,16.71,16.71,0,0,1,5.8-6.86,14.23,14.23,0,0,1,8.05-2.46,13.31,13.31,0,0,1,10.41,4.54q4,4.54,4,11.92v1.16a.84.84,0,0,1-.84.84H305.1a.84.84,0,0,0-.84.84v1.23a19.1,19.1,0,0,0,2,8.58,15.36,15.36,0,0,0,5.38,6.19,13.3,13.3,0,0,0,7.44,2.25,15.14,15.14,0,0,0,6.52-1.27,13,13,0,0,0,4.27-3.32.85.85,0,0,1,1.13-.15h0a.84.84,0,0,1,.19,1.19Q326.9,174.27,319,174.27Zm-.7-37.55a12.42,12.42,0,0,0-9.42,4.13,17.27,17.27,0,0,0-4.42,9.57.85.85,0,0,0,.84,1h25.55v-.46a16.06,16.06,0,0,0-1.63-7.19,12.6,12.6,0,0,0-4.5-5.17A11.6,11.6,0,0,0,318.32,136.73Z"/><path d="M339.87,154.17q0-9.1,3.83-14.22a12.42,12.42,0,0,1,10.51-5.12,14.67,14.67,0,0,1,7.58,1.93,13.24,13.24,0,0,1,3.62,3.16,1,1,0,0,0,1.7-.57V120.52a1,1,0,0,1,.95-.95h0a1,1,0,0,1,.95.95v52.1a1,1,0,0,1-.95.95h0a1,1,0,0,1-.95-.95v-2.3a.94.94,0,0,0-1.65-.61,13.39,13.39,0,0,1-3.66,2.79,16.22,16.22,0,0,1-7.66,1.78A12.25,12.25,0,0,1,343.7,169q-3.83-5.24-3.83-14.38Zm2,.74q0,8.09,3.2,12.78a10.34,10.34,0,0,0,9.07,4.69,14.87,14.87,0,0,0,8.05-2.09,12.37,12.37,0,0,0,4.88-5.95,1,1,0,0,0,.08-.38V146.49a1,1,0,0,0-.06-.33q-3.3-9.43-12.88-9.43a10.49,10.49,0,0,0-9.09,4.61Q341.84,145.94,341.84,154.9Z"/><path d="M426.42,148.4H402.09a1,1,0,0,0-.95.95v23.27a1,1,0,0,1-.95.95h0a1,1,0,0,1-.95-.95V123.33a1,1,0,0,1,.95-.95H430a1,1,0,0,1,.95.95h0a1,1,0,0,1-.95.95H402.09a1,1,0,0,0-.95.95v20.25a1,1,0,0,0,.95.95h24.33a1,1,0,0,1,.95.95v.07A1,1,0,0,1,426.42,148.4Z"/><path d="M438.94,123.65a1.92,1.92,0,0,1,.56-1.39,1.84,1.84,0,0,1,1.37-.58,2,2,0,0,1,2,2,1.84,1.84,0,0,1-.58,1.37,1.92,1.92,0,0,1-1.39.56,1.92,1.92,0,0,1-1.93-1.93Zm1.93,49.92h0a1,1,0,0,1-.95-.95V136.48a1,1,0,0,1,.95-.95h0a1,1,0,0,1,.95.95v36.14A1,1,0,0,1,440.87,173.57Z"/><path d="M456.2,140.68a.94.94,0,0,0,1.73.53,15.23,15.23,0,0,1,3.76-3.82,13.55,13.55,0,0,1,8-2.57q6.12,0,9.09,3.46t3,10.46v23.87a1,1,0,0,1-.95.95h0a1,1,0,0,1-.95-.95V148.7q0-6.11-2.5-9t-7.8-2.93a11.84,11.84,0,0,0-8.53,3.49,17.7,17.7,0,0,0-4.84,8.89,1.05,1.05,0,0,0,0,.24v23.27a1,1,0,0,1-.95.95h0a1,1,0,0,1-.95-.95V136.48a1,1,0,0,1,.95-.95h0a1,1,0,0,1,.95.95Z"/><path d="M518.09,172.81a22.81,22.81,0,0,1-.44-3.49,1,1,0,0,0-1.65-.58,15.44,15.44,0,0,1-4.57,3.52,19,19,0,0,1-8.82,2,12.29,12.29,0,0,1-8.49-2.87,9.53,9.53,0,0,1-3.22-7.47,9.64,9.64,0,0,1,4.73-8.38q4.73-3.15,12.57-3.22h8.44a1,1,0,0,0,1-1v-4.6a9.35,9.35,0,0,0-3-7.42q-3-2.64-8.6-2.64a13.84,13.84,0,0,0-8.68,2.67,8.16,8.16,0,0,0-3.44,5.75.93.93,0,0,1-1,.82h0a1,1,0,0,1-.92-1.06,9.88,9.88,0,0,1,4-6.85,15.57,15.57,0,0,1,10-3.23q6.15,0,9.77,3.08a11,11,0,0,1,3.73,8.67v18.18q0,6.26,1,8.51v.32H519A1,1,0,0,1,518.09,172.81Zm-15.49-.44A17.07,17.07,0,0,0,511.8,170a14.77,14.77,0,0,0,5.69-6.51,1,1,0,0,0,.09-.42v-7.87a1,1,0,0,0-1-1h-7.84q-8.16,0-12.48,3.23A7.94,7.94,0,0,0,492.8,164a7.56,7.56,0,0,0,2.78,5.91A10.3,10.3,0,0,0,502.61,172.38Z"/><path d="M533.61,140.68a.94.94,0,0,0,1.73.53,15.23,15.23,0,0,1,3.76-3.82,13.55,13.55,0,0,1,8-2.57q6.12,0,9.09,3.46t3,10.46v23.87a1,1,0,0,1-.95.95h0a1,1,0,0,1-.95-.95V148.7q0-6.11-2.5-9t-7.8-2.93a11.84,11.84,0,0,0-8.53,3.49,17.7,17.7,0,0,0-4.84,8.89,1.05,1.05,0,0,0,0,.24v23.27a1,1,0,0,1-.95.95h0a1,1,0,0,1-.95-.95V136.48a1,1,0,0,1,.95-.95h0a1,1,0,0,1,.95.95Z"/><path d="M584,172.38a13,13,0,0,0,8.53-2.74,10,10,0,0,0,3.59-6.74,1,1,0,0,1,.94-.86h0a1,1,0,0,1,.94,1.09,11.71,11.71,0,0,1-4.16,7.79,14.73,14.73,0,0,1-9.84,3.36,13.85,13.85,0,0,1-11.34-5.17q-4.2-5.17-4.2-14v-1.27q0-8.65,4.2-13.82A13.77,13.77,0,0,1,584,134.83a14.18,14.18,0,0,1,10,3.62,13,13,0,0,1,4.11,8.57,1,1,0,0,1-.94,1.07h0a1,1,0,0,1-.94-.88,11.26,11.26,0,0,0-3.54-7.37,12.24,12.24,0,0,0-8.67-3.11,12,12,0,0,0-10,4.59q-3.6,4.59-3.6,12.74v1.23q0,8,3.64,12.53A12.1,12.1,0,0,0,584,172.38Z"/><path d="M621.33,174.27a15.3,15.3,0,0,1-8.46-2.48,17,17,0,0,1-6-6.8,21,21,0,0,1-2.18-9.6v-1.58a22.05,22.05,0,0,1,2.11-9.67,16.71,16.71,0,0,1,5.8-6.86,14.23,14.23,0,0,1,8.05-2.46A13.31,13.31,0,0,1,631,139.36q4,4.54,4,11.92v1.16a.84.84,0,0,1-.84.84H607.4a.84.84,0,0,0-.84.84v1.23a19.1,19.1,0,0,0,2,8.58,15.36,15.36,0,0,0,5.38,6.19,13.3,13.3,0,0,0,7.44,2.25,15.14,15.14,0,0,0,6.52-1.27,13,13,0,0,0,4.27-3.32.85.85,0,0,1,1.13-.15h0a.84.84,0,0,1,.19,1.19Q629.21,174.27,621.33,174.27Zm-.7-37.55a12.42,12.42,0,0,0-9.42,4.13,17.27,17.27,0,0,0-4.42,9.57.85.85,0,0,0,.84,1h25.55v-.46a16.06,16.06,0,0,0-1.63-7.19,12.6,12.6,0,0,0-4.5-5.17A11.6,11.6,0,0,0,620.63,136.73Z"/></g></g></svg>